<svg width="500" height="500" version="1.1" viewBox="0 0 500 500" xmlns="http://www.w3.org/2000/svg">
<path d="m-49.83 248.5-0.16252-270.08 598.37 0.29025-597.71 0.29404-0.16462 269.79-0.16462 269.79zm394.83 247.65c0-0.31153 0.73451-2.0495 1.6322-3.8622 0.89773-1.8126 1.6322-3.3662 1.6322-3.4524 0-0.0862-2.2025 0.60714-4.8945 1.5406-10.189 3.5332-15.069 4.2427-29.382 4.2726-10.204 0.0212-14.247-0.20182-18.5-1.021-11.835-2.2794-24.101-6.8026-34.873-12.86-3.142-1.7668-5.7127-3.0487-5.7127-2.8488s-0.4343-0.14583-0.96516-0.76825c-0.55122-0.64635-0.13115 1.1031 0.97932 4.0791 2.1465 5.7521 2.3173 6.7411 1.1639 6.7411-0.42931 0-5.2035-1.4744-10.609-3.2764-36.269-12.09-54.574-22.697-122.12-70.764-14.722-10.476-31.469-22.197-37.214-26.046-22.193-14.867-52.17-32.833-54.026-32.379-0.26931 0.0659-0.48966-0.11836-0.48966-0.40953 0-0.54895-9.1705-5.4658-19.097-10.239-3.142-1.5108-5.7127-3.0738-5.7127-3.4732 0-0.39938 4.1412-3.5489 9.2026-6.999 10.146-6.9159 21.499-16.387 27.517-22.956 3.918-4.2764 11.593-14.003 11.593-14.692 0-0.20255-2.8645 0.0977-6.3656 0.66726-7.3607 1.1974-10.609 1.341-10.609 0.46911 0-0.33912 1.788-2.5036 3.9732-4.8099 11.091-11.705 22.014-30.109 26.971-45.443l1.551-4.7974-3.1054-1.5165c-18.737-9.1499-32.037-30.432-31.99-51.188 0.02736-12.142 2.5175-22.149 7.513-30.192 3.2142-5.1753 13.026-14.027 17.72-15.986 3.3355-1.392 3.3957-1.4644 5.4667-6.5752 2.7506-6.7878 12.883-24.901 14.664-26.214 0.63248-0.46621-5.6439-0.10725-9.9564 0.56955-2.7315 0.42863-2.7858-0.55241-0.20655-3.732 1.0534-1.2986 1.7879-2.5186 1.6322-2.7111-0.1557-0.19249-0.1017-0.23175 0.11992-0.0872 0.22168 0.1445 1.6373-1.2329 3.1459-3.0608 8.8625-10.739 26.118-27.138 37.139-35.297 3.5346-2.6164 9.6222-6.7597 13.528-9.2073 8.0804-5.0636 8.1653-4.8045-1.8228-5.5639-2.9874-0.2271-4.7334-0.61479-4.7334-1.051 0-0.82491 8.504-6.1131 19.062-11.854 7.8979-4.2942 21.072-10.348 28.761-13.217 2.4238-0.90424 4.4069-1.8826 4.4069-2.174 0-0.29148 0.25528-0.38908 0.5673-0.21688 0.312 0.1722 3.6172-0.60787 7.3449-1.7335 14.193-4.2856 25.496-6.3055 40.858-7.3014 16-1.0372 34.799 0.63576 49.141 4.3732 3.0412 0.79249 5.6609 1.3235 5.8215 1.1801 0.16069-0.14344-0.051-0.26081-0.46962-0.26081-0.41893 0-0.76262-0.32795-0.7638-0.72878 0-0.40082-1.1754-2.3029-2.6094-4.2269-2.8194-3.7826-3.3913-5.8766-1.469-5.3788 22.644 5.8641 35.898 11.079 50.911 20.032 4.4061 2.6276 8.0111 4.6552 8.0111 4.5058 0-0.14941-0.62094-3.0268-1.3798-6.3941-0.75897-3.3673-1.1834-6.2979-0.94328-6.5124 0.53517-0.47787 5.4868 1.9224 12.443 6.0314 17.054 10.074 35.805 27.202 53.211 48.603 7.0798 8.7052 20.172 26.437 26.257 35.562l4.8235 7.2331 5.5143 1.5706c7.4037 2.1087 10.927 3.5504 16.389 6.7056 8.5328 4.9292 13.16 10.46 16.324 19.512 1.3834 3.9582 1.5254 5.4227 1.4971 15.45-0.0281 9.8783-0.21818 11.787-1.7583 17.631-3.2426 12.305-8.837 21.942-15.897 27.385-1.9425 1.4976-3.5319 3.0735-3.5319 3.5019 0 0.42846 1.7123 2.8053 3.8051 5.2817 13.217 15.641 20.992 34.305 21.002 50.415 5e-3 5.8464-0.98219 5.9164-4.1014 0.29153-1.2892-2.3248-4.3343-7.1967-6.7668-10.826-3.3785-5.0411-4.5251-6.3489-4.8557-5.5387-0.36719 0.9-0.4751 0.83989-0.7121-0.39681-0.15361-0.80167-0.14925 3.2948 0.0101 9.1032 0.44814 16.373-1.644 32.517-7.0557 54.446-1.8052 7.3148-2.5677 9.3283-3.5325 9.3283-1.0063 0-4.9741-3.6101-4.9741-4.5256 0-0.63675-2.5356-2.211-2.8816-1.7891-0.0869 0.10607-0.78697 2.5542-1.5555 5.4402-6.6655 25.03-0.53772 45.119 17.437 57.169 6.416 4.3009 16.54 8.9126 27.632 12.587 5.6468 1.8707 7.6641 2.7991 7.6713 3.5305 0.011 1.1521-3.78 3.6001-9.697 6.261l-4.1574 1.8696 5.6474 3.0178c7.9092 4.2264 15.449 9.2831 15.245 10.224-0.0947 0.43606-3.8449 2.0814-8.3334 3.6564-23.987 8.4166-44.131 19.215-77.04 41.299-26.983 18.107-41.365 27.09-52.621 32.869-5.1442 2.6409-7.444 3.3045-7.444 2.1479zm-24.157-14.596c19.237-1.7582 34.498-7.964 52.788-21.466 13.79-10.18 23.847-22.326 28.09-33.924 3.3367-9.1212 3.4517-10.31 4.0048-41.387 0.28825-16.193 0.85084-31.673 1.2502-34.398 1.8299-12.488 5.2729-22.371 14.725-42.269 3.3512-7.0545 6.58-13.876 7.175-15.159 3.0904-6.6619 5.6377-15.727 7.127-25.361 1.1109-7.1866 1.3883-21.415 0.46953-24.083-0.35241-1.0236-1.2457-4.2222-1.985-7.1082-1.5386-6.0066-5.3229-13.448-9.4931-18.666l-2.8699-3.5914-5.2196 0.26983c-5.3632 0.27724-9.8813-0.16326-9.8813-0.96342 0-0.24877 1.3189-1.6815 2.9309-3.1839 3.9505-3.6818 5.1716-6.341 4.1752-9.0919-3.6722-10.138-13.803-17.693-27.019-20.148-7.8992-1.4675-15.248-0.38447-24.029 3.541-2.4435 1.0924-4.7041 1.9862-5.0235 1.9862-0.3194 0-1.6987-0.91584-3.0653-2.0352-6.5869-5.3955-20.032-9.5995-30.756-9.6165-5.7347-8e-3 -14.492 1.444-14.492 2.4046 0 0.31389-0.27179 0.4207-0.60391 0.23737-0.75316-0.41563-3.9662 0.84696-3.9662 1.5586 0 0.28811-0.2579 0.38149-0.57318 0.2075-0.9101-0.50227-6.6966 4.3745-7.6772 6.4703-3.1107 6.6484 2.0108 14.891 12.004 19.32 3.9084 1.7321 4.3302 2.7183 1.3874 3.2439-4.5915 0.82004-16.716-0.10865-19.831-1.519-1.9821-0.8974-4.8966-3.485-4.8966-4.3474 0-1.1954-0.73776-0.95863-6.2614 2.0091-17.806 9.5668-33.141 24.684-42.384 41.782-7.3014 13.507-11.442 27.443-14.306 48.143-1.8816 13.601-4.1366 36.682-4.7421 48.536-0.36406 7.127-0.53707 8.0165-1.5593 8.0165-0.90854 0-1.4329-1.0768-2.499-5.1317-2.0138-7.66-3.8009-17.567-4.6764-25.926-1.0036-9.5803-0.4548-31.204 1.0021-39.488 4.6562-26.475 15.183-48.51 30.825-64.527l4.17-4.2697h-2.5882c-8.2334 0-20.852-2.7935-29.21-6.4664-12.846-5.6451-22.533-17.889-27.045-34.184-2.6215-9.4661-3.414-16.694-3.1256-28.505 0.13711-5.612 0.14495-9.9243 0.0176-9.5829-0.12744 0.3414-0.4516 0.49939-0.72039 0.35105-0.63225-0.34894-45.241 19.349-45.893 20.265-0.27179 0.38178-0.4987 0.49535-0.5042 0.25237-4e-3 -0.24297-3.5406 1.1387-7.8558 3.0704l-7.8458 3.5121 0.99062 1.7106c2.648 4.5727 3.8312 16.542 2.2497 22.757-1.5679 6.162-3.3034 10.494-4.204 10.494-0.63209 0-1.9927-3.0413-4.2385-9.474-1.8191-5.2107-3.9245-10.917-4.6786-12.681-4.2064-9.8377-13.438-16.882-24.949-19.039-19.728-3.6965-35.658 11.876-35.658 34.857 0 12.31 4.95 23.62 14.304 32.683 5.799 5.6183 16.367 11.765 18.347 10.672 0.35495-0.19588 0.64535-0.10449 0.64535 0.20312 0 1.0642 6.5922 2.0056 11.652 1.6639 8.8644-0.5987 18.043-5.7095 24.36-13.564 1.1423-1.4205 2.5058-2.5826 3.0299-2.5826 2.2443 0-1.2015 13.032-4.7868 18.104-5.6977 8.0599-16.249 12.312-28.142 11.34l-4.6598-0.38072-1.8204 5.145c-2.4157 6.8275-6.0333 14.558-10.72 22.906l-3.8393 6.8393 4.1856-0.8943c2.3021-0.49187 4.4027-0.7004 4.6681-0.4634 0.77688 0.69375-3.0158 9.8919-7.3467 17.817-2.2032 4.032-6.3749 10.479-9.2704 14.327-5.1582 6.855-14.703 17.008-19.142 20.36-1.2311 0.9299-2.1576 1.9304-2.0589 2.2232 0.09867 0.29289-0.04825 0.40805-0.32644 0.25596-0.27822-0.1521-1.9039 0.81226-3.6127 2.143l-3.1069 2.4195 10.289 5.5212c25.5 13.684 49.384 28.933 85.043 54.296 33.892 24.106 45.361 31.942 62.381 42.621 16.56 10.391 31.521 18.461 40.234 21.705l2.398 0.89259-2.8842-5.5115c-5.8189-11.12-10.704-24.62-13.082-36.152-1.6484-7.9937-1.9575-24.315-0.60614-32.011 2.1648-12.328 4.3699-15.627 5.1998-7.7803 1.6018 15.145 7.8286 38.275 13.42 49.848 0.81337 1.6835 1.6874 3.0608 1.9425 3.0608s0.46367 0.36885 0.46367 0.81966c0 1.6299 5.8746 9.9401 10.704 15.142 16.701 17.989 38.883 27.985 65.247 29.405 0.8977 0.0483 4.4233-0.16717 7.8346-0.47896zm-4.8966-27.78c-24.601-2.6019-41.036-9.0085-54.921-21.41-14.723-13.15-23.262-31.025-27.466-57.499-0.94747-5.9665-1.1563-11.357-1.1516-29.734 5e-3 -23.61 0.4915-29.323 3.5487-41.756 7.2162-29.348 25.695-56.09 47.834-69.222 5.7019-3.3823 17.365-8.7 21.517-9.8109 1.3628-0.36462 2.4779-0.89928 2.4779-1.1881 0-0.28885 0.26783-0.37735 0.59516-0.19669 0.32731 0.18065 3.2937-0.31646 6.592-1.1047 10.397-2.4847 21.519-3.4377 35.576-3.0485 13.169 0.3646 20.827 1.23 32.97 3.726 4.1295 0.8488 8.1692 1.5616 8.9771 1.5841 0.80793 0.0224 1.469 0.20475 1.469 0.40505s2.7012 1.2065 6.0028 2.236c15.448 4.8172 23.842 10.29 28.404 18.517 4.0834 7.3646 3.7213 15.486-1.4612 32.779-0.88726 2.9606-1.4477 5.6221-1.2454 5.9144 0.20227 0.2923 0.096 0.53144-0.23613 0.53144-0.33219 0-1.4282 2.0333-2.4356 4.5184-1.0074 2.4851-3.124 7.0108-4.7037 10.057-1.5797 3.0463-2.9139 5.9978-2.965 6.559-0.051 0.56116-0.27624 1.0203-0.50044 1.0203-0.22413 0-3.173 5.5413-6.553 12.314-5.515 11.051-7.1211 13.536-8.1514 12.616-0.17452-0.15582 0.11056-2.4839 0.63362-5.1734 0.52296-2.6896 1.1436-7.5137 1.3793-10.72 0.23562-3.2066 0.84008-8.0472 1.3433-10.757 0.65745-3.5404 0.71321-5.0381 0.19802-5.3223-0.48869-0.26976-0.43363-0.49624 0.17315-0.71171 0.69224-0.24585 0.70067-0.32628 0.0379-0.36209-1.4771-0.0798-6.307 11.083-9.1873 21.234-3.1215 11.001-5.4128 26.714-6.304 43.231-0.52341 9.7005 0.39435 16.529 2.2216 16.529 0.92781 0 1.2928-1.3193 2.2988-8.308 1.5576-10.821 1.7184-11.515 2.6693-11.515 1.0102 0 1.5221 6.7196 2.0653 27.11 0.33276 12.492 0.21322 16.308-0.67959 21.694-2.0384 12.297-6.1836 20.793-13.61 27.894-10.101 9.6583-24.274 15.323-42.793 17.104-6.2204 0.59814-20.059 0.74656-24.621 0.26408zm28.727-13.884c6.027-0.87411 11.544-2.3444 15.294-4.0761 3.2736-1.5117 4.8946-5.315 4.3376-10.177-0.2417-2.1107-0.70283-4.0734-1.0247-4.3616-1.3099-1.1727-3.6105 1.2622-5.1034 5.4013-1.9016 5.2725-3.1498 5.4919-3.7618 0.66128l-0.44318-3.4981-4.9755-7e-3c-2.7365-4e-3 -5.624-0.16321-6.4166-0.35299-1.2535-0.30011-1.718 0.1564-3.5677 3.5061-1.1697 2.1181-2.3574 3.8511-2.6394 3.8511-0.70557 0-3.0839-2.1738-2.727-2.4925 0.15864-0.14163-0.29611-1.4753-1.0105-2.9637l-1.299-2.7061-4.2669-0.0875c-2.3468-0.048-4.5882-0.11372-4.9808-0.14575-0.39259-0.0321-1.7881 1.8306-3.1012 4.1391-3.152 5.5419-4.2007 5.5614-5.5809 0.10376-0.57752-2.2839-1.0502-4.514-1.0502-4.9556 0-0.44165-0.0734-0.80825-0.16321-0.81466-0.0897-7e-3 -2.587-0.36361-5.5495-0.79375-5.0048-0.72675-5.3863-0.71085-5.3863 0.22453 0 2.8502-7.0362 6.977-11.915 6.9884-1.3466 3e-3 -2.4483-0.17382-2.4483-0.39325 0-0.21942 0.59555-1.4975 1.3234-2.8402 2.474-4.5638 3.4089-10.353 2.9131-18.041-0.24816-3.8479-0.64629-7.1274-0.88471-7.2878-0.23852-0.16033-1.1071-2.1936-1.9303-4.5184-0.82322-2.3248-1.791-4.2269-2.1506-4.2269-1.043 0-7.5494 12.667-9.1337 17.782-1.774 5.7274-1.9479 12.567-0.38761 15.239 1.3624 2.3332 12.842 10.463 12.872 9.1153 5e-3 -0.24786 0.22589-0.15715 0.48965 0.20162 1.4574 1.9819 13.887 5.9879 22.351 7.2033 2.6931 0.38676 5.3373 0.78031 5.8759 0.87456 3.2175 0.56291 21.371 0.18511 26.442-0.55029zm32.68-16.417c4.073-2.3832 6.4787-11.756 5.8915-22.955-0.60423-11.524-2.8326-21.572-4.7839-21.572-0.67834 0-0.87699 0.43156-0.66174 1.4372 0.16923 0.79045 0.0751 1.5119-0.20931 1.6033-0.28433 0.0915-1.4309 4.2937-2.5479 9.3385-1.117 5.0448-2.6073 10.668-3.3117 12.497-0.93551 2.4281-1.0776 3.4368-0.52688 3.7407 0.49581 0.27363 0.33037 0.51303-0.48326 0.69907-0.84527 0.19328-0.64497 0.30436 0.63219 0.35056l1.8695 0.0677-0.25195 8.1922-0.25194 8.1922 1.5516-0.34776c0.85337-0.19127 2.2411-0.75117 3.0838-1.2442zm-22.798-12.782c3.8451-3.705 0.48555-18.947-5.8786-26.672-2.2572-2.7395-6.2197-4.4899-10.164-4.4899-6.5503 0-9.8503 2.5191-12.871 9.8251-1.7379 4.2036-3.1842 5.2909-3.7983 2.8556-0.18188-0.72146-1.0708-4.3289-1.9753-8.0165-3.7605-15.331-8.5153-25.952-15.008-33.524-3.0621-3.5708-10.784-10.269-10.784-9.3545 0 0.18287 0.61724 2.2313 1.3716 4.552 1.9903 6.1229 2.413 18.138 0.93886 26.687-1.3408 7.7749-1.0351 9.9214 3.1693 22.26 1.5606 4.5798 3.0498 9.1953 3.3095 10.257 0.57974 2.3698 1.0648 2.5439 11.45 4.1091 12.468 1.8791 21.687 2.6898 32.896 2.8928 5.454 0.0989 5.8934 0.0161 7.3449-1.3825zm-84.811-9.8918c0.5821-0.96282 0.14481-2.3392-2.4084-7.5792-1.7158-3.5215-4.3818-9.6386-5.9246-13.593-2.0685-5.3025-2.9577-6.947-3.3864-6.2628-0.31978 0.51028-0.37316 1.2286-0.11883 1.5963 0.26454 0.3822 0.17627 0.51041-0.20612 0.29937-0.38585-0.21296-1.1309 0.94301-1.7613 2.7326-1.0386 2.9487-1.0298 3.358 0.17844 8.2955 1.5428 6.3047 3.6267 11.649 7.2546 18.603l2.7371 5.2472 1.462-4.0811c0.80408-2.2446 1.7821-4.6106 2.1733-5.2576zm9.5014-19.375c3.4957-8.0999 4.0431-10.562 4.0504-18.219 5e-3 -6.0224-0.25867-8.0469-1.5228-11.66-4.2501-12.149-12.588-20.926-19.926-20.976-2.5369-0.0173-6.332 1.9798-8.0725 4.2481-2.5552 3.3301-3.1327 7.2154-2.255 15.172 0.43045 3.9021 0.78019 8.1166 0.77719 9.3656l-5e-3 2.2709 3.4276-2.8752c4.6757-3.9221 8.134-6.193 9.0266-5.9273 0.40955 0.12189 1.6989 3.4917 2.8652 7.4884 4.0276 13.802 5.0846 16.95 5.9488 17.722 0.47712 0.42609 0.71418 0.91162 0.52673 1.079-0.43697 0.39024 2.3679 6.2477 2.9918 6.2477 0.25814 0 1.2336-1.7709 2.1678-3.9354zm112.11-0.14576c0-0.64131-0.26624-1.166-0.59178-1.166-0.32546 0-0.43807 0.52474-0.25024 1.166 0.18776 0.64131 0.45407 1.166 0.59177 1.166 0.13762 0 0.25025-0.52472 0.25025-1.166zm-131-91.673c-0.16889-0.24407 0.0216-0.44376 0.4228-0.44376 0.40146 0 0.54835-0.26235 0.32644-0.58303-0.22192-0.32065-0.15087-0.58301 0.1578-0.58301 0.30876 0 1.235-1.2462 2.0584-2.7693 0.82333-1.5231 4.4075-7.5293 7.9646-13.347 5.9787-9.778 7.4065-13.168 6.0548-14.375-1.1128-0.9937-11.694 12.481-16.389 20.872-5.4962 9.8208-11.365 25.043-11.519 29.876-0.0431 1.3608-0.29914 2.4759-0.56846 2.4778-0.26932 2e-3 -0.48504 0.72503-0.47934 1.6068 5e-3 1.0285 2.2096-2.6794 6.1445-10.342 3.3738-6.57 5.996-12.145 5.8271-12.389zm144.69 6.261c0-0.32065-0.28478-0.18948-0.63289 0.2915-0.34805 0.48101-0.63283 1.1369-0.63283 1.4576 0 0.32065 0.28478 0.18949 0.63283-0.29151 0.34811-0.48099 0.63289-1.1369 0.63289-1.4575zm12.596-15.45c1.0679-3.4618 1.3606-6.1942 1.4051-13.118 0.0711-11.034-1.3144-17.088-4.5432-19.855-4.437-3.802-15.189-7.8506-28.659-10.791-13.65-2.98-21.209-3.6963-39.211-3.7155-14.4-0.0153-17.08 0.13202-22.759 1.2512-3.5403 0.69771-6.5598 1.3784-6.7102 1.5126-0.53465 0.47746 5.108 11.241 7.3195 13.963 1.7655 2.1725 2.6454 2.7679 4.0903 2.7679 1.6564 0 2.2449-0.63018 5.8696-6.2853 2.2158-3.4569 4.0286-6.6244 4.0286-7.039 0-0.41454 0.46517-0.66889 1.0336-0.56521 0.62116 0.11326 1.6621 1.8172 2.6084 4.2696 0.86612 2.2446 2.0615 5.065 2.6564 6.2674l1.0816 2.1863h4.7017c2.5859 0 6.5076 0.16856 8.7147 0.37456l4.0131 0.37457v-2.5096c0-3.0856 1.9184-8.7338 2.9663-8.7338 0.8727 0 3.5625 7.1128 3.5625 9.4204 0 1.4196 0.24052 1.5379 3.7541 1.8465 2.0647 0.18134 5.6653 0.50598 8.0012 0.72146l4.2471 0.39174 2.0646-4.1495c3.0933-6.217 4.1193-5.5368 5.8133 3.8535 0.36834 2.0419 0.66729 2.294 4.1651 3.5116 6.0855 2.1185 6.5573 1.8529 6.5573-3.6915 0-2.7702 0.16067-3.1589 1.3058-3.1589 0.72542 0 1.3058 0.38868 1.3058 0.87452 0 0.481 0.22035 0.87453 0.48966 0.87453s0.53014 0.59032 0.57962 1.3118c0.0496 0.72151 0.44083 3.0171 0.86978 5.1014 0.62812 3.0527 0.61064 4.2431-0.0899 6.1217-0.75329 2.0198-1.158 2.3568-3.0218 2.5168-2.5363 0.21768-2.6632-0.47119 1.8457 10.018 1.723 4.0083 3.6719 8.9415 4.331 10.963l1.1984 3.6751 1.5329-3.0921c0.84307-1.7006 2.1399-5.0598 2.8817-7.4647zm-114.24-6.318c5.1329-13.676 6.6438-23.392 4.9715-31.968-0.39597-2.0304-0.76322-3.6877-0.81611-3.6828-0.0528 6e-3 -1.1245 0.3535-2.3813 0.77484-5.0703 1.6998-8.9715 3.4924-13.833 6.3566-5.0764 2.9906-5.1065 3.0233-4.6789 5.0769 1.45 6.9634 9.3306 34.704 9.9075 34.875 0.38317 0.11408 0.56244 0.64955 0.39839 1.19-0.77628 2.5576 4.9588-8.6975 6.4321-12.623zm-209.67-49.251c-3.545-1.1991-7.037-4.2298-8.9983-7.8098-1.5297-2.792-1.8706-4.2661-2.084-9.01-0.31368-6.9743 1.136-11.797 5.2103-17.334l2.7429-3.7276-1.5409-2.5939c-1.8653-3.1398-5.1873-5.5707-6.9226-5.0655-0.90184 0.26256-0.99476 0.20853-0.34986-0.2034 1.6127-1.0301-2.3135-1.419-4.435-0.43932-2.1121 0.97534-4.0862 3.1387-3.5591 3.9003 0.18574 0.26841 0.03474 0.488-0.33543 0.488-1.1627 0-2.7821 6.2925-2.8224 10.967-0.04648 5.3788 1.2859 11.768 2.1986 10.544 0.41851-0.56121 0.48768-0.35303 0.22299 0.67111-0.23816 0.92158 0.2697 3.0223 1.3391 5.5387 3.1003 7.2956 2.9473 7.8104-1.5657 5.2664-5.0816-2.8646-11.752-11.698-12.877-17.052-0.23772-1.1316-0.61441-1.7977-0.83711-1.4804-0.75362 1.074-0.80355-12.049-0.05987-15.743 1.692-8.4036 7.1268-14.73 14.241-16.577 13.514-3.5082 27.854 6.4811 33.468 23.313l1.3804 4.139-1.5229 0.89085c-4.6123 2.6982-6.9136 4.7328-8.603 7.6062-1.6636 2.8295-1.8527 3.6764-1.6495 7.3861 0.19358 3.5337 0.53897 4.5833 2.2047 6.6998 2.1243 2.699 6.2053 5.118 8.6608 5.1335 2.4592 0.0155 1.4554 1.8152-1.8632 3.3402-3.6 1.6544-8.6725 2.156-11.642 1.1514zm278.22-19.989c0.48894-5.7729 2.807-10.167 6.5219-12.362 3.492-2.0636 11.004-2.5146 16.202-0.9727 6.7952 2.0155 11.442 8.1837 9.7057 12.883-1.0301 2.7872-2.882 3.3197-8.9318 2.5683-7.7802-0.96633-12.405-0.73739-17.483 0.86543-6.6461 2.098-6.454 2.1933-6.0157-2.9816zm-19.762 1.1671c-3.0464-0.75432-11.126-2.3136-17.954-3.4651-12.542-2.115-17.086-3.4095-19.718-5.6178-3.4311-2.8784-2.0524-7.9501 2.6832-9.8708 3.1075-1.2603 11.913-1.4948 17.482-0.46532 5.6338 1.0414 12.584 4.3247 16.374 7.7348 5.5257 4.972 10.318 13.372 7.4882 13.127-0.44885-0.0391-3.3086-0.68802-6.355-1.4424zm-280.7-8.7383c0.03127-0.67917 0.18603-0.81732 0.39444-0.35222 0.1886 0.42087 0.16542 0.92371-0.0515 1.1174-0.21695 0.19373-0.37125-0.15062-0.34291-0.76523zm366.74 227.18c3.702-1.9872 10.296-5.1802 14.654-7.0954 4.3579-1.9153 8.0488-3.5942 8.202-3.731 0.36724-0.32794-14.956-9.2674-17.495-10.207-1.8665-0.69037-2.8626-2.9202-1.3046-2.9202 0.36733 0 2.8585-0.82115 5.5358-1.8248l4.8681-1.8248-3.9206-1.6557c-5.551-2.3443-9.3755-4.7917-14.883-9.5239-5.5791-4.7941-8.192-7.8392-11.455-13.35l-2.3588-3.9838-0.011 17.393c-0.015 24.856-1.2565 36.041-5.2241 47.059-1.0355 2.8756-1.7438 5.4292-1.5739 5.6747 0.16988 0.2455 4.342-1.9936 9.2713-4.9756 4.9293-2.9821 11.991-7.0479 15.693-9.0351zm12.529-176.96c0-0.14142-0.29381-0.41925-0.65289-0.61743-0.35909-0.19818-0.65287-0.0824-0.65287 0.2571 0 0.33958 0.29378 0.61743 0.65287 0.61743 0.35908 0 0.65289-0.11572 0.65289-0.2571zm-193.58-49.089c1.4363-0.49719 3.4195-1.0402 4.407-1.2066s1.7954-0.52681 1.7954-0.80084 0.80794-0.89174 1.7954-1.3727c1.737-0.84606 1.6893-0.86086-1.469-0.45588-1.7954 0.23022-8.6996 0.4097-15.343 0.39887-13.596-0.0223-17.158-0.60773-25.259-4.1522-12.855-5.6244-18.641-17.61-18.672-38.68-0.0248-16.894 3.6916-26.125 12.765-31.706 7.1076-4.3714 14.105-5.5643 32.798-5.5917 10.314-0.0151 27.269 1.4292 27.639 2.3544 0.11967 0.29968 1.8198 0.54491 3.7779 0.54491 3.7848 0 18.432 2.6752 19.475 3.5569 0.34114 0.28831 1.187 0.5242 1.8796 0.5242 1.898 0 9.9387 2.7142 14.804 4.9971 7.2582 3.406 13.681 10.287 13.702 14.68 9e-3 1.5632 0.41888 1.5964 4.6132 0.37127 4.655-1.3596 11.228-0.91926 15.446 1.0349 3.2286 1.4958 3.2849 1.5011 2.9877 0.27783-0.22093-0.90924-0.13423-1.0345 0.32026-0.46256 0.4728 0.59494 0.73565 0.38392 1.0894-0.87453 0.2564-0.91228 0.43595-1.7294 0.39905-1.8159-0.0897-0.21018 1.0331-1.4355 4.391-4.7913 1.6509-1.65 4.1941-3.359 6.2024-4.1679 3.1881-1.2842 4.1902-1.3713 15.809-1.3745 11.958-3e-3 20.502 0.40696 21.649 1.0395 0.30203 0.1665 3.1932 0.71119 6.425 1.2104 6.8472 1.0577 18.002 3.839 21.055 5.25 1.167 0.53924 2.1218 0.84048 2.1218 0.66943 0-0.17102 0.93931 0.41256 2.0873 1.2968 9.1948 7.0826 11.52 13.061 10.708 27.527-0.24378 4.3427-0.74618 8.9452-1.1165 10.228-0.37038 1.2826-0.92468 3.5127-1.2319 4.9557-0.30718 1.443-1.0028 3.7261-1.5456 5.0737-1.1129 2.7621-5.2829 8.8094-6.8741 9.9686-0.90116 0.65647-0.85109 0.67869 0.35706 0.15836 1.638-0.70545 5.303-5.0395 7.4073-8.7594 1.8527-3.2751 3.6751-7.9842 4.9746-12.854 1.9778-7.4121 1.9664-22.288-0.0184-24.06-0.44879-0.40075-0.70216-1.0335-0.56312-1.4061 0.46166-1.2367-2.9193-6.2681-6.1264-9.1171-5.6797-5.0454-11.787-8.109-23.075-11.574-6.0756-1.8653-12.966-3.3361-17.791-3.7978-1.7056-0.16322-3.1012-0.56186-3.1012-0.88587 0-0.38714-5.0922-0.50019-14.853-0.32976l-14.853 0.25935-8.161 2.4501c-4.4886 1.3475-9.9238 2.5972-12.078 2.777-5.174 0.43182-11.267-0.87898-19.453-4.1849-3.5492-1.4334-6.7206-2.4586-7.0474-2.2782-0.32684 0.18037-0.59425 0.0697-0.59425-0.24605 0-0.31569-2.3496-1.315-5.2213-2.2207-2.8717-0.90571-5.2221-1.9445-5.223-2.3083-6.6e-4 -0.36475-1.6204-0.8422-3.6092-1.0641-1.9842-0.22138-7.0522-1.2013-11.262-2.1776-4.2101-0.97627-9.2706-1.9975-11.246-2.2694s-5.0598-0.78786-6.8552-1.1466c-7.3118-1.4612-33.046-3.0929-41.131-2.6081-7.5469 0.45252-14.961 1.799-16.252 2.9516-0.49181 0.4392-1.0469 0.66222-1.2335 0.4956-0.81015-0.72346-7.6216 3.1358-11.039 6.2543-7.2082 6.5783-10.55 15.378-10.602 27.919-0.0385 9.2149 0.9818 15.656 3.6947 23.321 4.3336 12.243 10.353 19.18 20.218 23.299 11.27 4.7056 29.511 7.1795 36.106 4.8967zm95.806-30.332c-0.45107-0.16241-0.65-0.54114-0.44205-0.84159 0.69714-1.0074-1.6968-6.1624-3.9565-8.52-4.0202-4.1942-7.8097-4.6194-11.386-1.2776-2.6793 2.5037-4.9694 6.9718-3.8811 7.5725 0.45585 0.25158 4.3703 1.0211 8.6987 1.7101 4.3284 0.68898 8.1636 1.3425 8.5227 1.4523 1.0466 0.31989 3.3483 0.22975 2.4442-0.0958zm-230.04-24.03c23.322-10.998 43.075-20.144 55.469-25.682 10.747-4.8024 12.432-5.7602 16.322-9.2782 3.3588-3.0374 5.7381-4.5384 10.54-6.6493 13.836-6.0818 27.721-7.4205 55.844-5.3837 22.889 1.6578 32.894 3.4532 57.297 10.283 5.7109 1.5983 10.795 2.765 11.298 2.5926 0.50298-0.17235 0.91448-0.0811 0.91448 0.20279 0 0.70587 10.2 2.7865 16.967 3.4608 4.8698 0.48531 6.5326 0.37552 13.71-0.90525 10.217-1.8231 22.796-2.357 32.646-1.3857 4.0059 0.39503 7.409 0.60607 7.5626 0.46898 0.4802-0.42886-17.423-24.241-24.661-32.8-3.7962-4.4892-9.3171-10.655-12.269-13.701-5.4407-5.6154-16.897-16.325-17.463-16.325-0.17008 0-1.233-0.69661-2.3621-1.548l-2.0529-1.548-0.17255 2.2768c-0.38102 5.0272-1.5948 10.148-2.4055 10.148-0.45538 0-5.7906-3.3202-11.856-7.3783-16.318-10.918-29.642-18.463-30.789-17.438-0.20305 0.18132 0.0469 0.3337 0.55574 0.33861 0.6808 0.0065 0.71666 0.12711 0.13572 0.45679-0.61339 0.34811-0.57963 1.6771 0.15154 5.967 0.51734 3.0355 0.94589 5.7159 0.95235 5.9564 0.0281 1.0412-2.0687 0.2274-7.2157-2.8007-5.9178-3.4815-13.157-6.8677-14.683-6.8677-0.51714 0-0.94035-0.19397-0.94035-0.43104 0-0.59663-5.9062-2.3418-6.6103-1.9532-0.31429 0.17344-0.5714 0.08541-0.5714-0.19562 0-1.4728-16.665-4.5709-29.594-5.5015-16.881-1.2151-34.903 0.88672-52.861 6.1649-8.4152 2.4734-22.931 7.986-25.871 9.8255-1.4236 0.89043-1.2952 0.95559 3.9668 2.0129 7.702 1.5476 7.5705 2.2292-1.2046 6.2456-21.572 9.8736-37.846 20.507-55.349 36.166-11.53 10.316-11.423 10.049-4.1022 10.186 4.0959 0.0768 4.0598 0.96101-0.25332 6.1923-9.8139 11.903-21.223 28.983-23.066 34.531-0.40922 1.232-0.24435 1.3123 2.7094 1.3204 6.8939 0.0189 15.931 2.9967 22.325 7.356 1.584 1.08 3.0273 1.9637 3.2075 1.9637s6.3811-2.8547 13.78-6.3437zm-19.029-45.931c0.44886-0.16173 1.1834-0.16173 1.6322 0 0.44886 0.16173 0.0817 0.29407-0.8161 0.29407-0.8977 0-1.265-0.13234-0.8161-0.29407zm-68.991 100.91c0.03134-0.67919 0.18603-0.81734 0.39444-0.35224 0.1886 0.42086 0.16541 0.92373-0.05152 1.1174-0.21695 0.19374-0.37126-0.15061-0.34291-0.76521zm-0.65288-4.6642c0.03134-0.67919 0.18603-0.81734 0.39444-0.35222 0.1886 0.42085 0.16541 0.9237-0.0515 1.1174-0.21695 0.19372-0.37125-0.15061-0.3429-0.76522z" stroke-width=".6335"/>
<rect x="5.681" y="12.498" width="619.23" height="531.74" fill="none"/>
<rect x="73.853" y="40.903" width="813.52" height="806.7" fill="none"/>
</svg>
