<svg xmlns="http://www.w3.org/2000/svg" fill-rule="evenodd" clip-rule="evenodd" image-rendering="optimizeQuality" shape-rendering="geometricPrecision" text-rendering="geometricPrecision" viewBox="0 0 846 846">
  <path fill="#3f4243" d="m494 24-4 1c-19-3-38-4-56-4 13-1 27-2 42-1l12 3c2-1 4-1 6 1Z" opacity=".3"/>
  <path fill="#171f24" d="M434 21a749 749 0 0 1 60 3c15 2 29 6 44 12-4-1-4 1-2 4 1-2 3-2 5-1 23 9 43 21 62 38v-4l3 3-1 1c22 19 43 40 61 64l13 11c1 1 1 0 2-1l18 22c-1-1-2 0-2 1l8 16a560 560 0 0 1 52 6c27 6 34 21 19 46-3-2-5-1-6 2l-3 32-10 27c-2 1-4 3-5 6l-7 4-3-2c2 8 3 17 3 26 12 13 19 29 21 47h3v5c-2 0-2 0-2 2-1 10-4 19-10 28-2 11-7 21-15 31-1 1-1 2 1 3l-12 11-12 17-10 27c0-2-1-3-2-3-7 26-8 53-4 81l2 2 2 3-1 3c10 11 13 24 10 40l-3 10c-6 7-8 16-7 25-3 5-5 11-6 17-5 16-15 30-28 42l-7 3-2 5-1-2-8 2v-8c-19 19-42 30-69 35 0-5 2-9 5-11v2c3-5 6-8 10-11l-2-1c-12 5-24 9-36 11-3 1-3 2 0 3a297 297 0 0 1-105 71l-2-1-10 4-2-2c-6 1-12 2-17 1a617 617 0 0 0-58-69l-4-4 2 1v-2a1054 1054 0 0 0-97-92 727 727 0 0 0-127-86c-14-7-28-11-42-14v-3l-10-2-2-2 53-56c12-15 22-31 31-48l-2-1v-2c-8 5-16 8-25 10l-4-2c18-28 33-58 43-89l1-10c-9-17-13-34-13-53-1-19 4-36 14-52-1 1 0 2 1 1l5-8a1194 1194 0 0 1 13-42l-5-3A317 317 0 0 1 350 40a455 455 0 0 1 76-20c2-1 5 0 8 1Zm103 129 20 8c2 0 4-1 5-4-3-1-5-3-7-6 1-1 2 0 3 2l1-1c0 3 1 3 3 1l7 4 1-1 41 22 4-2 4-7 2-2 5 8 4 3c5-3 8-7 10-12l7-5 9 3c10 8 18 17 26 28l-24 6c-15 1-29 1-43-1l-54-11a273 273 0 0 0-107-4c-4-2-6-1-8 2l-2-2-2 2a1753 1753 0 0 0-48 14l-1-1a1736 1736 0 0 1 14-10l12-15c5-4 10-8 15-10 3-3 7-6 11-7l1 1c4-3 8-5 13-6l27-3a10710 10710 0 0 0 51 6Zm-146 46-1 1-6 1 4-3c2-1 3-1 3 1Zm51 74 1 2c6 21 21 35 43 40l17 4 18-2 1 1 8-2 1 1c3-2 5-3 9-2-3 1-5 4-6 7-6 2-10 6-14 11l-13 16c-5 7-8 15-10 24l4-1 7-5a2608 2608 0 0 1-22 44h-1l-2-3 2-2v-2l-3-4-5 3c-1-10 0-19 3-28l-1-3c-6 2-11 4-16 8l-1-3-1 4c-3 0-5 2-7 4 1-6 3-11 7-15l-1-1a447 447 0 0 0 14-26 108 108 0 0 1-24-4c-8-2-15-5-21-9-13-8-23-19-29-32l-6-18c-1-2-2-2-3 0l-3 5c0-9 2-17 6-24-1-7 0-13 2-18a528 528 0 0 1 30-9l4 1 5 12 7 26Zm-201-26h2a70 70 0 0 1 49 61v22c-2 20-5 40-11 60l-7 5-16-2c-31-15-51-38-60-70l-3-21v-1c0-18 6-34 18-46 0-2 1-3 3-1l2-4 9-3h14Zm410 27-3-1v-1l-2 1c-3-2-5-2-7-2h-1l-16-4 2-1-3-3 2-15 9-3 6 3c3 9 8 17 13 26Zm-260-28-1 1-2 1h-2c1-2 2-3 5-2Zm351 141c-5-4-10-7-15-8l-2-2c-58-10-111 2-157 37-53 46-68 103-46 173 6 15 14 29 24 43 12 13 26 24 43 32l15 5 7 2c21 3 42 3 64 0h1l-8 11a63 63 0 0 1-37 23v2c-3-1-3-3 0-4l-1-1c-29 0-52-9-70-29-3-2-5-2-7-1l2 6-2-1c-15-14-27-30-35-48a518 518 0 0 1-17-54c-2-1-3-2-4-1-2 9-3 8-3-1a380 380 0 0 1 8-90 9424 9424 0 0 0 17-53 467 467 0 0 0 15-31c-2-3-4-4-7-3-1 4-3 8-7 11v-2l-8 11c5-23 13-44 26-64a105 105 0 0 1 20-21c12 14 27 19 45 14 1-1 2-3 1-4-8-4-15-9-21-14-7-8-7-16 0-23 3-5 8-9 13-11 6-3 12-5 18-3 15-3 30 0 45 8l13 9 4-3c0 3 1 3 3 0-1-2-2-3-1-5 5-10 13-12 24-6l14 10c10 9 11 19 5 31l-5 7c14 10 24 24 30 41l1 13-5-6Zm-6 44-8 13-5 5v-2c0-8 1-15 4-23l-2-5 1-1-13-3-8-3a3336 3336 0 0 1-52 3l-7-8c-2-2-3-2-4-1l-7 11-10 22c-2 2-4 2-6 1-3-8-6-16-7-23 1-5 4-8 9-8a383 383 0 0 1 54-14c12-2 24-1 36 0l17 7c8 8 11 17 8 29Zm-202-34c1 1 1 2-1 3-1-2-1-3 1-3Zm-49 14 1 1-6 13 2-14h3Zm-204 49c-3 45 11 83 44 115l8 4-1-28a362 362 0 0 0 41 73h-3c-9-6-18-13-25-20a208 208 0 0 1-47-50 173 173 0 0 1-20-57 188 188 0 0 1 3-37Zm416 22a292 292 0 0 0-17 87l-1-1c-2-12-3-23-2-34l1-2c2-15 6-29 12-42l4-4 3-4Zm-125 62 8 3 13 13c8 9 15 19 20 31 6 1 8-2 8-8-2-13-5-25-9-36 2 0 3 1 4 4l3-1a151 151 0 0 1 22 28l10 25c1 3 0 6-2 8-8 3-16 4-24 5l-21-3a1528 1528 0 0 1-15-12l-6-1-13 7-6-3c-8-9-14-18-18-27l-4-11 1-3-3-1-3-10v-13c1-2 2-3 4-3 11-1 21 1 31 8Zm2 82c0-3 2-4 5-4 1-2 2-3 4-3l10 12 23 4a204 204 0 0 0 65-6l5-11 5-10c8 10 7 20-1 29-8 5-16 9-23 11-32 7-61 3-88-13l-6-5c-1-2 0-3 1-4Zm-115 57a185 185 0 0 0 34 39l11 7v2l7 1-2-12c6 6 12 13 16 22v3l-6-4-1 1c-17-7-31-17-42-30l-14-19-3-10Z"/>
  <path fill="#383c3d" d="M538 36c23 9 45 21 65 37v4c-19-17-39-29-62-38-2-1-4-1-5 1-2-3-2-5 2-4Z" opacity=".5"/>
  <path fill="#373c3d" d="m606 76 25 21a523 523 0 0 0 33 34l-2 1c2 3 4 6 8 8l11 11c-1 1-1 2-2 1l-13-11a461 461 0 0 0-60-65Z" opacity=".6"/>
  <path fill="#34393b" d="M459 147c-5 1-9 3-13 6l-1-1c-4 1-8 4-11 7-3 0-4-1-2-3 8-5 16-9 25-11l2 2Z" opacity=".3"/>
  <path fill="#373a3c" d="m619 166-4 7-4 2-41-22-1 1-7-4c-2 2-3 2-3-1l-1 1c-1-2-2-3-3-2 2 3 4 5 7 6-1 3-3 4-5 4l-20-8c-1-1 0-2 1-2l19 6-9-9 2-1c9 1 17 4 25 8l36 20 6-7c0-1 1-1 2 1Z" opacity=".1"/>
  <path fill="#323637" d="m561 183-3 1c-33-7-67-8-100-3l-4-2 28-3c26-2 53 0 79 7Z" opacity=".1"/>
  <path fill="#393d3e" d="M699 173c3 4 6 9 8 15 6 2 12 3 19 3-7 1-14 1-21-1l-8-16c0-1 1-2 2-1Z" opacity=".2"/>
  <path fill="#535758" d="M615 194c14 2 28 2 43 1l-22 2-16-1c-3 0-4-1-5-2Z" opacity=".2"/>
  <path fill="#36393a" d="m196 224 2 1-6 21-5 8c-1 1-2 0-1-1l4-7c2-8 3-15 6-22Z" opacity=".5"/>
  <path fill="#36393b" d="M639 268c2 0 4 0 7 2l2-1v1l3 1c-5-9-10-17-13-26l-6-3-9 3-2 15 3 3-2 1 16 4-19-3c-1-7-1-14 1-20 1-4 3-5 6-4 5-4 10-3 14 3 4 10 9 20 16 30l-1 2-16-8Zm12 3-3-1v-1l-2 1c-3-2-5-2-7-2h-1l-16-4 2-1-3-3 2-15 9-3 6 3c3 9 8 17 13 26Z" opacity=".5"/>
  <path fill="#2e3233" d="M241 244h-14l-9 3-2 4c-2-2-3-1-3 1a69 69 0 0 0-18 46c-4-24 5-42 25-55 6-2 13-3 21-2v3Z" opacity=".3"/>
  <path fill="#343839" d="m292 305-4-17c-8-22-23-37-45-44-1-1 0-2 1-2 25 9 41 26 48 53v10Z" opacity=".3"/>
  <path fill="#192025" d="M240 264c21 9 34 25 38 49 1 3 1 6-1 9 1 1 0 2-1 3-1-2-2-2-2 0-5 2-7 6-7 12l4 12 3 3c1-1 2-2 4-1-1 2 0 5 2 8-2 2-3 5-3 8-20-1-35-9-46-26l-4-20h3c0-4 1-7 4-9l9-7c3-2 3-5 1-8-4-6-9-9-16-10-5 0-9 3-12 8-3 6-6 13-7 21l-2-1c-2-10-2-20-1-29l-1 3c0-6 2-12 6-16 5-5 10-8 16-11 2-2 5-2 8-1 1 1 2 1 2 3 1-2 2-2 3 0Z"/>
  <path fill="#343839" d="m442 270-7-26-5-12-4-1a528 528 0 0 0-30 9c-2 5-3 11-2 18-4 7-6 15-6 24l3-5c1-2 2-2 3 0l6 18c6 13 16 24 29 32 6 4 13 7 21 9l2 1-1 2a85 85 0 0 1-59-59l-4 8c-1-3-1-3-1-1l1 5h-3c1-16 3-30 7-45l-2-3 1-1c-3-1-4 0-5 2h2v2c-8 1-14 4-19 7-1-2-1-4 2-5 16-10 35-18 54-21 6 0 10 4 11 11a2270 2270 0 0 1 6 31Zm-51-27-1 1-2 1h-2c1-2 2-3 5-2Z" opacity=".1"/>
  <path fill="#313537" d="m776 242-3 3-3 30 1 1-10 26c-2-1-3 0-4 1l10-27 3-32c1-3 3-4 6-2Z" opacity=".2"/>
  <path fill="#484e51" d="M583 299c-7 7-7 15 0 23l-1 2c-7-8-8-16-3-25 1-2 2-2 4 0Z" opacity=".1"/>
  <path fill="#2f3435" d="M234 312c2-4 5-8 8-10v-4c-8-11-16-11-24-1-4 6-6 13-7 21h-3c-3-2-4-5-4-7l-1-14 2-8 1-3c-1 9-1 19 1 29l2 1c1-8 4-15 7-21 3-5 7-8 12-8 7 1 12 4 16 10 2 3 2 6-1 8l-9 7Z" opacity=".6"/>
  <path fill="#182024" d="M624 301c21 2 38 13 50 32l-6 3-28-8c2-1 2-2 0-3l-24-4c-9-1-12-5-11-13l3-3c5-2 10-4 16-4Z"/>
  <path fill="#192025" d="M708 303c8 3 10 10 6 19-5 6-12 11-20 14h-4c-4-8-4-16-2-24 5-7 11-10 20-9Z"/>
  <path fill="#3d4244" d="M534 319c1-3 3-6 6-7-4-1-6 0-9 2l-1-1-8 2-1-1-18 2-17-4c-22-5-37-19-43-40 0-1 1-1 2 1 6 17 17 29 35 35 9 3 18 4 28 5l43-6-17 12Z" opacity=".2"/>
  <path fill="#42474a" d="m195 299 3 21a811 811 0 0 1-5-17c0-2 0-4 2-4Z" opacity=".5"/>
  <path fill="#333637" d="M624 301c-6 0-11 2-16 4l-3 3c-1 8 2 12 11 13a150041 150041 0 0 0 24 7c-11-1-21-3-30-6l-6-5c-3-10 0-15 11-17 3-1 6-1 9 1Z" opacity=".5"/>
  <path fill="#313537" d="M552 331c-5 4-10 10-14 16a208 208 0 0 0-27 69c-2 1-3 3-3 5 5-34 18-64 39-90l4-2 1 2Z" opacity=".1"/>
  <path fill="#323638" d="m745 313 3 24c11 13 18 29 21 47h-3c-2-18-9-34-21-47 0-9-1-18-3-26l3 2Z" opacity=".3"/>
  <path fill="#3d4043" d="M736 428c3-12 0-21-8-29l-17-7c-12-1-24-2-36-1-6 0-12 1-17 4l-2-1-25 7c2-3 6-5 10-6 24-7 49-8 75-4 10 3 18 9 22 20v14l-2 3Z" opacity=".2"/>
  <path fill="#363a3b" d="M292 327c0 20-3 40-9 61-4 4-8 6-14 6l-14-4h3l16 2 7-5c6-20 9-40 11-60Z" opacity=".7"/>
  <path fill="#323638" d="M713 412c-18 0-35 1-52 4l-3-1 3-1 44-5 8 3Z" opacity=".8"/>
  <path fill="#333638" d="M769 389c0 10-3 20-9 29-3 13-8 25-17 35-2-1-2-2-1-3 8-10 13-20 15-31 6-9 9-18 10-28 0-2 0-2 2-2Z" opacity=".1"/>
  <path fill="#343839" d="M508 458a9424 9424 0 0 1-8 18c0-5 2-10 3-14 0-4 2-5 5-4Z" opacity=".9"/>
  <path fill="#373b3c" d="M280 460c-2 11-3 22-2 34l2 15-4-7c-2-14-2-27 0-40 0-3 2-4 4-2Z" opacity=".1"/>
  <path fill="#323638" d="M698 479c-1-2-1-2-1 0a309 309 0 0 0-7 8c-6 13-10 27-12 42-2-2-3-3-2-5 2-23 11-42 27-57 1 2 0 4-3 5l2 2-4 5Z" opacity=".3"/>
  <path fill="#363a3b" d="M281 510c3 14 9 28 17 41l-5-3c-6-12-11-24-14-36 0-1 0-2 2-2Z" opacity=".2"/>
  <path fill="#373b3d" d="m640 573-21-26-3 1c-1-3-2-4-4-4 4 11 7 23 9 36 0 6-2 9-8 8a108 108 0 0 0-33-44l-8-3c-10-7-20-9-31-8-2 0-3 1-4 3v13l-2-2c-4-15 2-21 17-17 29 8 50 26 62 55l4 1c1-6 1-11-1-16l-8-30c7 3 14 8 20 15 4 4 8 9 11 15v3Z" opacity=".5"/>
  <path fill="#383c3e" d="M333 547c-1-3-1-3-1 1l1 28-8-4a143 143 0 0 1-44-119c-3 38 8 73 32 104l17 16a18503 18503 0 0 0 1-38c1 2 2 4 1 7h1l1 6-1-1Z" opacity=".1"/>
  <path fill="#313536" d="m170 451 2 1c-9 17-19 33-31 48a1719 1719 0 0 1-51 58l10 2v3l-14-3c-2-1-2-3-1-4 27-24 51-51 71-80l14-25Z" opacity=".1"/>
  <path fill="#404547" d="m709 508-3 12 2 2a26520 26520 0 0 1-5 31v20l1 10 3 1c-2 1-3 2-2 4l-2-2c-4-28-3-55 4-81 1 0 2 1 2 3Z" opacity=".4"/>
  <path fill="#43484a" d="m501 483-7 46v39c0 9 1 10 3 1 1-1 2 0 4 1a3911 3911 0 0 1 2 12l-4-9-3 5c-1-2-1-2-1 0 1 1 1 3-1 5-5-35-3-70 5-104l2 4Z" opacity=".4"/>
  <path fill="#373b3d" d="M677 531c-1 11 0 22 2 34h-3c-2-11-2-22-1-33l2-1Z" opacity=".8"/>
  <path fill="#3e4243" d="M685 525h2c-2 6-3 13-3 20l-1 35c-4-5-6-9-6-14h3l1 6a886 886 0 0 1 4-47Z" opacity=".7"/>
  <path fill="#363a3a" d="M218 623a465 465 0 0 0-76-46 560 560 0 0 1 76 46Z" opacity=".1"/>
  <path fill="#3e4344" d="M546 574c4 9 10 18 18 27h-3c-8-8-13-17-17-26 0-1 1-2 2-1Z" opacity=".5"/>
  <path fill="#323637" d="M625 613c8-1 16-2 24-5 2-2 3-5 2-8l-10-25c0-2 1-2 2 0l10 24c1 4 0 8-3 11-9 3-18 5-27 4l2-1Z" opacity=".4"/>
  <path fill="#343839" d="M508 595a518 518 0 0 0 7 29c-4-9-7-19-9-28 0-1 1-2 2-1Z" opacity=".3"/>
  <path fill="#303335" d="m686 615-5 11-2-1-6 2c-19 4-38 6-57 5l1-2c21 0 41-3 62-8l7-7Z" opacity=".5"/>
  <path fill="#3d4144" d="M675 666c-22 3-43 3-64 0l-7-2c-1-1 0-2 1-2 22 5 44 6 67 2 1-1 2 0 3 2Z" opacity=".3"/>
  <path fill="#3b4041" d="M560 668c18 20 41 29 70 29l1 1c-3 1-3 3 0 4 3-1 3 0 1 1l-11 3-1-2 7-6c-28 1-51-9-68-29-1-1-2-1-2 1 1 3 3 7 3 11l-9-9h2l2 1-2-6c2-1 4-1 7 1Z" opacity=".1"/>
  <path fill="#3b3f40" d="M484 711c-10-10-18-20-25-31l3 10 14 19-5-2a82 82 0 0 1-19-44c8 17 19 32 32 46v2Z" opacity=".3"/>
  <path fill="#35393b" d="M525 739c-4-9-10-16-16-22l2 12-7-1v-2l-11-7c-2-2-2-3 0-3l14 10 1-1c-3-6-4-11-3-16 9 8 16 17 22 29l-2 1Z" opacity=".7"/>
  <path fill="#363a3b" d="M364 756a958 958 0 0 0-93-95 1054 1054 0 0 1 95 96l-2-1Z" opacity=".3"/>
  <path fill="#393f41" d="M590 752c2-5 1-6-3-1l-2-1-23 6c-3-1-3-2 0-3 12-2 24-6 36-11l2 1c-4 3-7 6-10 11v-2Z" opacity=".2"/>
  <path fill="#343738" d="m445 830-16 4-4-3a826 826 0 0 0 1-2c5 1 11 0 17-1l2 2Z" opacity=".3"/>
</svg>