<svg xmlns="http://www.w3.org/2000/svg" fill-rule="evenodd" clip-rule="evenodd" image-rendering="optimizeQuality" shape-rendering="geometricPrecision" text-rendering="geometricPrecision" viewBox="0 0 1024 1024">
  <path fill="#898982" d="M478 69h-15c0-2 1-2 2-2h7l6 2Z" opacity=".1"/>
  <path fill="#656561" d="M463 69h15l3-1 15 2c-3-1-5 0-7 1h-24l-7 1c3 1 5 3 6 7l-13-8 7-1h-10l1 2-5-1 2-2 11-1 6 1Z" opacity=".2"/>
  <path fill="#464743" d="M489 71c2-1 4-2 7-1 2-1 5 0 8 1l-4 1-11-1Z" opacity=".7"/>
  <path fill="#3d3e3a" d="M562 70c2-1 4 0 6 1l-9 1-1-2h4Z" opacity=".7"/>
  <path fill="#575753" d="M562 70h-4l1 2 9-1c19 4 36 11 53 22-1-1-2 0-2 1a189 189 0 0 0-54-21l4 6 6 8 2 2 3 6-2 1c-7-11-16-20-25-28 3 0 6 0 9 2Z" opacity=".7"/>
  <path fill="#40413e" d="m464 79 5 4-1 2c-1-2-3-4-5-4l-3-1-11-8-1-2h10l-7 1 13 8Z" opacity=".5"/>
  <path fill="#4d4d4a" d="M504 71a157 157 0 0 1 74 27h1l2 3h-2a170 170 0 0 0-79-29l4-1Z" opacity=".6"/>
  <path fill="#454541" d="m448 82-5 2h-11l-20-2c11-2 23-2 36 0Z" opacity=".7"/>
  <path fill="#6f6f69" d="m408 82-3 1 7 1-9 1c-4-1-7-2-10-1l15-2Z" opacity=".4"/>
  <path fill="#575752" d="M408 82h4l20 2h-20l-7-1 3-1Z" opacity=".4"/>
  <path fill="#666661" d="M461 84c-4-1-8 0-11 1-3-1-5 0-7 1v-2l5-2 4-1c1 2 3 2 5 1l4 2Z" opacity=".5"/>
  <path fill="#4b4b47" d="M393 84c3-1 6 0 10 1h-2c-3-1-5 0-7 1a378665 378665 0 0 0-26 3c8-3 16-5 25-5Z" opacity=".6"/>
  <path fill="#454541" d="M450 85c3-1 7-2 11-1l3 1-4 1-10-1Z" opacity=".4"/>
  <path fill="#6e6e6a" d="M463 81c2 0 4 2 5 4l1-2h2l1 6h-7l-5-3 4-1-3-1c4 0 4-1 2-3Z" opacity=".3"/>
  <path fill="#585953" d="m368 89 3 1a375 375 0 0 0-59 22l-8-1 1 2-5-1c21-11 44-18 68-23Z" opacity=".6"/>
  <path fill="#6c6b66" d="M666 106h-3l9 7-3-1-1 7-4-9c-1-2-1-2-1 0l1 4-5-8 1-1-4-2c0-2 1-2 2-2a1250 1250 0 0 1 8 5Z" opacity=".4"/>
  <path fill="#4e4f4b" d="M621 93c15 9 29 21 42 35v3l-3-3-1-1-2-2c-12-12-25-23-38-31 0-1 1-2 2-1Z" opacity=".6"/>
  <path fill="#787872" d="M305 113c3-1 6 0 9 2l-9-2Z" opacity=".3"/>
  <path fill="#41423f" d="m312 112 16 5-3 1-11-3c-3-2-6-3-9-2l-1-2 8 1Z" opacity=".6"/>
  <path fill="#757671" d="M312 112h11c1 2 2 3 4 2l5 4c3-2 7-2 11 1l-15 7c0-2-1-2-2-2l4-4-5-2 3-1-16-5Z" opacity=".1"/>
  <path fill="#4d4e4a" d="m332 118 6 2c-4 1-7 0-9-2h3Z" opacity=".5"/>
  <path fill="#4f504c" d="M326 124c1 0 2 0 2 2a223 223 0 0 0-124 100v-2a226 226 0 0 1 122-100Z" opacity=".6"/>
  <path fill="#434441" d="M668 119c0 2 0 4 2 7v1l2 6 1 5-1 5-1-3-1-4v-1l-1-3h-1a175 175 0 0 0-5-22c0-2 0-2 1 0l4 9Z" opacity=".4"/>
  <path fill="#73726f" d="m673 138 2 5-1 5h-2l1-2c-2-2-2-4-2-6l1 3 1-5Z" opacity=".2"/>
  <path fill="#4c4c49" d="m666 106 4 2a227 227 0 0 1 61 69c0 2 1 5 4 7l16 32 6 16c-1 0-2 1-1 2-1-2-2-3-4-2a304 304 0 0 0-58-100 330 330 0 0 0-31-26h3Z" opacity=".6"/>
  <path fill="#20211f" d="M468 211h3c2-1 4 0 6 1-3-1-5 0-7 1h-1l-4-1 3-1Z" opacity=".7"/>
  <path fill="#262726" d="m504 210 5 1-5 1h-3l-21-2h24Z" opacity=".6"/>
  <path fill="#464744" d="M232 217h3c-2 0-3 1-3 2l-15 5-3-1 4-2c4-2 8-4 14-4Z" opacity=".5"/>
  <path fill="#6d6e6b" d="m229 225-2-1 5-5c0-1 1-2 3-2h-3c-1-2 0-3 1-1 2-3 4-4 7-4l-1 4c-4 2-7 5-10 9Z" opacity=".1"/>
  <path fill="#676763" d="m218 221-4 2 3 1-4 1c-1-1-2-2-3-1 2-2 5-3 8-3Z" opacity=".4"/>
  <path fill="#3d3d3b" d="M210 224c1-1 2 0 3 1l-5 2-2-1 4-2Z" opacity=".5"/>
  <path fill="#656561" d="M208 221c-1 1 0 2 2 3l-4 2 2 1-5 5c-1-2-2-2-3 0v-5l4-3v2l4-5Z" opacity=".5"/>
  <path fill="#3b3c3b" d="M464 212h1l4 1c-41 6-70 29-85 70-2 1-3 1-2-1 11-33 33-55 66-67 5-2 10-3 16-3Z" opacity=".7"/>
  <path fill="#3d3e3c" d="M504 210c26 3 51 11 75 23a21700 21700 0 0 0 19 14l-2 2c-9-8-19-15-29-20a297 297 0 0 0-58-18l-5-1Z" opacity=".6"/>
  <path fill="#60605f" d="M602 239c-1-1-2 0-2 1l-5-1c-1-3-2-3-3-1l2 2v3l-15-10h12c2 2 5 3 8 3l3 3Zm-7 0-1 1-2-2c1-2 2-2 3 1Z" opacity=".2"/>
  <path fill="#51504f" d="M717 237c-3-1-5 0-6 1h-15c-1-1-2-2-3-1 3-2 7-3 11-2 4-1 8 0 13 2Z" opacity=".1"/>
  <path fill="#404140" d="M693 237c1-1 2 0 3 1-7 1-13 3-18 6-7 1-12 4-15 9-4 2-6 5-7 9-3 1-5 0-5-2l-6-5-9-6c0-2 0-2 2-2l4 3 1-1c3 4 7 7 13 7 0-3 2-5 5-6-2-1-2-1 0-2 4-1 7-3 11-6 6-3 13-5 21-5Z" opacity=".6"/>
  <path fill="#434342" d="M711 238c1-1 3-2 6-1 9 0 18 4 26 10l5 1-2 1 4 2 4 6 4 4 1 1 2 3 1 1v1l3 4h-3l-8-10-3-3a64 64 0 0 0-40-20Z" opacity=".5"/>
  <path fill="#3a3b39" d="M602 239c1 0 2 0 3 2 1-1 2-2 3-1 0 2 2 4 4 5l3 2 1 1c2 3 5 5 9 7v1a702 702 0 0 0 2 7c-8-10-17-17-27-23 0-1 1-2 2-1Z" opacity=".5"/>
  <path fill="#41413f" d="M757 232c8 8 15 18 23 28l6 12-15 1h-2a1961 1961 0 0 1 13-4l-1-1-2-4-3-5a598 598 0 0 0-19-27Z" opacity=".6"/>
  <path fill="#5a5b5a" d="M509 258h-37a10710 10710 0 0 1 37 0Z" opacity=".2"/>
  <path fill="#181917" d="M468 258h44l-3 1c-13-1-25 0-37 1h-4l-7-1 7-1Z" opacity=".8"/>
  <path fill="#494a49" d="m468 258-7 1 7 1-8 1c-4-1-7-2-10-1 5-2 11-2 18-2Z" opacity=".6"/>
  <path fill="#545554" d="M472 260c12-1 24-2 37-1v1c-2-1-3 0-4 2-11-2-22-3-33-2Z" opacity=".1"/>
  <path fill="#333433" d="m531 259-10 1h-12v-1l3-1c-1-1 0-2 1-2v1l18 2Z" opacity=".6"/>
  <path fill="#424242" d="M531 259c4-1 8 0 12 1-3-1-5 0-6 1h-13c2 1 2 1 0 2l-3-3 10-1Z" opacity=".5"/>
  <path fill="#595a5a" d="m555 261-11-1v-1l11 2Z" opacity=".1"/>
  <path fill="#606161" d="m635 257 1 11h3v-3l2 4h-6v-12Z" opacity=".1"/>
  <path fill="#222221" d="M537 261c1-1 3-2 6-1h1l11 1h2l-9 1-11-1Z" opacity=".7"/>
  <path fill="#464545" d="M557 261c2-1 4 0 7 1-3-1-5 0-6 1l-10-1 9-1Z" opacity=".6"/>
  <path fill="#383938" d="M558 263c1-1 3-2 6-1 3-1 6 0 10 1-3-1-5 0-7 1l-9-1Z" opacity=".5"/>
  <path fill="#313231" d="M567 264c2-1 4-2 7-1 3-1 6 0 10 1l-7 1-10-1Z" opacity=".6"/>
  <path fill="#5b5b5b" d="M651 260c0 2 2 3 5 2-4 5-5 4-5-2Z" opacity=".1"/>
  <path fill="#383938" d="M584 264c3-1 6 0 10 1l-8 1-9-1 7-1Z" opacity=".6"/>
  <path fill="#313131" d="M635 255v13l-2 1v-11l-1-11c1-1 2-2 3-1-2 3-2 6 0 9Z" opacity=".5"/>
  <path fill="#4c4b4b" d="M594 265c3-1 6 0 9 1-3-1-6 0-8 1l-9-1 8-1Z" opacity=".6"/>
  <path fill="#2c2d2c" d="M603 266c3-1 6 0 10 1l-6 1-12-1c2-1 5-2 8-1Z" opacity=".7"/>
  <path fill="#383938" d="M450 260c3-1 6 0 10 1-20 1-38 5-54 14l-7 6-1 1-3 2-4 4c-4 4-6 10-7 16-2 1-3 4-3 7v-4c1-14 8-24 20-32 15-9 31-14 49-15Z" opacity=".7"/>
  <path fill="#353635" d="M613 267c3-1 7 0 11 1v1h-6l-2 1-9-2 6-1Z" opacity=".8"/>
  <path fill="#525352" d="M633 258v11h-9v-1c7 0 7-1 1-4l2-1h2l2 2 2-7Z" opacity=".2"/>
  <path fill="#646464" d="m662 270-14-1c4-1 9-1 14 1Z" opacity=".1"/>
  <path fill="#565656" d="M618 269h6v1l2 1c-2 1-3 0-4-1l-2 2-2-3Z" opacity=".2"/>
  <path fill="#171716" d="M635 268v1l-1 1h-10v-1h9l2-1Z" opacity=".7"/>
  <path fill="#292b29" d="M635 269h13l14 1h1l-23 1h-2l-4-1 1-1Z" opacity=".5"/>
  <path fill="#565757" d="M627 270h7l4 1c-4 2-8 2-11-1Z" opacity=".1"/>
  <path fill="#454646" d="M664 270v2l-3 1-21-2 23-1c0-2 0-2 1 0Z" opacity=".2"/>
  <path fill="#363736" d="M664 270a642 642 0 0 1 28 3l-28-1v-2Z" opacity=".6"/>
  <path fill="#464746" d="M696 271c8 0 16 0 25 2-5-1-10 0-14 1l-15-1 12-1-8-1Z" opacity=".4"/>
  <path fill="#2c2d2c" d="M707 274c4-1 9-2 14-1h9l9 1h3l9 1-8 1-36-2Z" opacity=".6"/>
  <path fill="#4a4a49" d="M742 274c7 0 14 0 22 2-4-1-7 0-10 1l-11-1 8-1-9-1Z" opacity=".6"/>
  <path fill="#454644" d="m815 290-2 1c-20-9-39-13-57-12l-2-2c3-1 6-2 10-1 2-1 4-2 6-1v1c15 2 30 6 45 14Z" opacity=".5"/>
  <path fill="#464644" d="m227 224 2 1a210 210 0 0 0-42 74l1 1c2-2 5-3 8-3 1-1 2-2 4-1l1 2-10 2c-3 2-5 3-8 3l1-4 2-5a195 195 0 0 1 41-70Z" opacity=".7"/>
  <path fill="#5a5b5a" d="M618 286v1c-4-1-8 0-10 2-3-1-3 0-1 2-3-1-3 0-1 2-3-2-4-4-3-6a1310 1310 0 0 1 15-1Z" opacity=".2"/>
  <path fill="#414240" d="m618 286 2-1 4 2h8v1c-7-1-13 0-19 1h-5c2-2 6-3 10-2 2-1 2-1 0-1Z" opacity=".3"/>
  <path fill="#3e3f3e" d="M382 282c-1 2 0 2 2 1l-5 13c-2 0-3 1-2 3l-1 2a8269 8269 0 0 1-54 26c3-1 5-3 7-6l15-6a506 506 0 0 1 29-18c0-1 1-2 3-1l3-6c0-3 1-6 3-8Z" opacity=".7"/>
  <path fill="#5c5d5c" d="M632 288v-1a761 761 0 0 1 40 2h-13l-27-1Z" opacity=".1"/>
  <path fill="#2f302e" d="M613 289c6-1 12-2 19-1a316 316 0 0 0 8 2l-27-1Z" opacity=".7"/>
  <path fill="#4d4e4d" d="M659 289h14c3 0 3 0 0 2h-7l-8 1-18-2 19-1Z" opacity=".3"/>
  <path fill="#6a6b69" d="m379 290-3 6v-7c1-2 2-2 3 1Z" opacity=".1"/>
  <path fill="#393a38" d="M200 296h22l-7 1-14 1-1-2Z" opacity=".7"/>
  <path fill="#51514f" d="M204 296c9-2 18-2 28 0l1 2c-4-1-4 0-1 2l-7-1c-1-2-1-2-1 0l-9-2 7-1h-18Z" opacity=".4"/>
  <path fill="#3d3e3c" d="m607 291 2 1 7 13c0 2-1 2-2 1l-1-1c-1-4-3-6-5-8l-2-4c-2-2-2-3 1-2Z" opacity=".5"/>
  <path fill="#4f504f" d="M645 305h-18l5-2c4 0 8 0 13 2Z" opacity=".3"/>
  <path fill="#2a2b29" d="M626 305h20l-7 1h-1c-5-1-9 0-12 2h-1l-5-1 6-2Z" opacity=".5"/>
  <path fill="#5a5a59" d="M616 305h10l-6 2 5 1c-3 0-5 1-6 3h-4l-1-5c1 1 2 1 2-1Z" opacity=".3"/>
  <path fill="#484847" d="M646 305c2 0 5 0 8 2l1-1 3 3c1 0 2 1 1 3l-5-2-2 1c-3-4-7-5-11-3l-2-2 7-1Z" opacity=".5"/>
  <path fill="#515150" d="M384 304c1 7-1 10-7 11l2-2h-2l4-6v4c0-3 1-6 3-7Z" opacity=".4"/>
  <path fill="#595a56" d="M815 290c13 7 23 18 28 34-2-2-3-2-2 1-4-11-11-21-19-29l-4-2-2 1-3-4 2-1Z" opacity=".7"/>
  <path fill="#4c4d4a" d="m194 318-3 1 5 1c-10 1-18 6-25 13l-1-2c6-7 14-12 24-13Z" opacity=".5"/>
  <path fill="#3f403f" d="M204 317c21 4 38 14 51 31 9 12 17 26 23 42l-2 2a174 174 0 0 0-26-45 70 70 0 0 0-54-27l-5-1 3-1c3-1 6-2 10-1Z" opacity=".5"/>
  <path fill="#4b4c4b" d="m322 327-4 3 1 1-7 4h-4l7-5c-2-1-2-1 0-2l2 1c1-2 3-2 5-2Z" opacity=".5"/>
  <path fill="#4e504c" d="M843 324c5 20 6 40 4 61-1-3-2-6-1-9 0-18-1-35-5-51-1-3 0-3 2-1Z" opacity=".6"/>
  <path fill="#444543" d="m170 331 1 2c-7 7-11 15-14 23l-5 26-1-5-1 5c0-10 2-19 5-27 3-10 8-18 15-24Z" opacity=".7"/>
  <path fill="#3a3b3b" d="M233 298c28 7 45 27 51 59-1 3-2 7-1 11-2-25-11-45-29-59-7-4-15-7-22-9-3-2-3-3 1-2Z" opacity=".7"/>
  <path fill="#3a3a39" d="M377 313h2l-2 2-1 1c-2 0-4 0-5 2a1307 1307 0 0 0-38 18l-2-1-20 7h-6l1-1a84447 84447 0 0 0 28-10c14-7 28-13 43-18Z" opacity=".6"/>
  <path fill="#686867" d="M308 335h4l-6 4-4 1c0-4 2-5 6-5Z" opacity=".2"/>
  <path fill="#605f5f" d="M302 340v2c1-1 2-2 4-1l-1 1h6l1 1h-11l-1-3h2Z" opacity=".3"/>
  <path fill="#575756" d="M664 349c-1-1-2 0-2 1v2c-1 1-2 2-1 4l-3-5 2-7c1 2 1 2 2 0l2 5Z" opacity=".2"/>
  <path fill="#4c4d4b" d="M374 352v2c1-2 3-2 6-2l-11 5c-2 1-3 3-3 5-2-3-3-3-2 1l-2-4 2-4 1 2c1-2 2-3 4-3-2-1-1-2 0-2l1 2c1-2 2-2 4-2Z" opacity=".5"/>
  <path fill="#282927" d="m662 352 1 5-1 4-1-4v-1c-1-2 0-3 1-4Z" opacity=".5"/>
  <path fill="#4b4b4a" d="m664 349 8 10c-1-1-2 0-2 1l-6-6v-5Z" opacity=".5"/>
  <path fill="#3f3f3e" d="M202 354c3 0 6 2 9 6l6 8c-2 2-3 2-3 0h-3v-4c-9-9-18-10-28-2a53 53 0 0 0-11 45c2 23 13 43 33 60-1-1-2 0-2 1a85 85 0 0 1-33-84l-2-1 9-18 11-11h14Zm12 14-3 1v-1h3Z" opacity=".6"/>
  <path fill="#585958" d="m672 359 8 1c-1 1-1 3 1 4l7 3-6-1v2l-4-2 2-1-8-6Z" opacity=".1"/>
  <path fill="#323432" d="m672 359 8 6-2 1c-4-1-7-3-8-6 0-1 1-2 2-1Z" opacity=".4"/>
  <path fill="#484848" d="M284 358h2l-2 19v-19Z" opacity=".5"/>
  <path fill="#383937" d="m625 366-3 1h-19l-4-1c4-2 9-3 14-2 4-1 8 0 12 2Z" opacity=".7"/>
  <path fill="#363634" d="m688 367 7 1-7 1-6-1v-2l6 1Z" opacity=".4"/>
  <path fill="#5b5b5a" d="M214 368c0 2 1 2 3 0 2 1 2 3 0 6l-2-3-7 1-2-1 5-2 3-1Z" opacity=".3"/>
  <path fill="#3a3b3a" d="M663 357c4 11 12 17 26 18l3 1-1 2c-4 2-6 5-8 10v-2c0-4 1-7 5-9-3-1-6 0-8 2v-4l-10-5h-1l-1-1c-4-1-6-4-6-7v-1l1-4Z" opacity=".3"/>
  <path fill="#545352" d="M688 367c5 0 11 0 17 2h-9l4 2-9-1c-1 0-2 0-3 2v-3l7-1-7-1Z" opacity=".5"/>
  <path fill="#636565" d="m584 372-3 2c0-2 1-3 3-2Z" opacity=".1"/>
  <path fill="#3a3b3a" d="M705 369c7 0 13 3 19 7l5 3a1346 1346 0 0 1 12 13l1 2 2 3c3 5 5 12 6 19-1 2-2 5-1 8-3-31-20-48-49-53l-4-2h9Z" opacity=".6"/>
  <path fill="#3e3f3d" d="M625 366c2 0 5 1 7 3 1-2 2-2 4 0l-1 1 7 6 7 8h4c-1 1-2 2-1 3l7 6c-3-1-3 0-1 2a53 53 0 0 1-14-13c-6-8-14-13-22-15l3-1Z" opacity=".5"/>
  <path fill="#252525" d="M284 357v20l-1 9c-1-2-2-4-1-6-1-5 0-9 1-12-1-4 0-8 1-11Z" opacity=".8"/>
  <path fill="#2d2f2d" d="M152 382v2l-2 18v-20l1-5 1 5Z" opacity=".7"/>
  <path fill="#3c3c3b" d="m206 371 2 1c-3 0-5 1-6 3l-5 5v3c-1-2-1-2-2 0-2 3-4 7-4 12l-1-5c1-7 4-12 10-17l6-2Z" opacity=".7"/>
  <path fill="#343635" d="m599 366 4 1c-23 4-37 18-42 41l-2 5c-1-8 0-15 4-21l12-16 1 1c1-2 3-3 5-3l3-2c4-4 9-6 15-6Z" opacity=".8"/>
  <path fill="#343635" d="M282 380c-1 2 0 4 1 6l-1 5-2 2v-1c0-5 0-9 2-12Z" opacity=".6"/>
  <path fill="#393b39" d="M366 362c3 18 10 35 22 51v3c-11-13-19-27-23-43-1-4-2-7-1-10-1-4 0-4 2-1Z" opacity=".5"/>
  <path fill="#535450" d="M846 376c-1 3 0 6 1 9-2 16-7 31-17 45l-1-2c10-16 16-34 17-52Z" opacity=".4"/>
  <path fill="#5f6060" d="m278 390 2 2v1l2-2-2 9h-4l-1-5c2-1 2-2-1-3h2l2-2Z" opacity=".1"/>
  <path fill="#606160" d="m669 396-8-2-2-1 4-2c1 3 2 4 5 3l1 2Z" opacity=".1"/>
  <path fill="#3a3b3a" d="M379 350c2-1 3 0 5 2 3 27 15 50 35 69 1 2 4 3 7 3l-2 1 4 3 5 3 5 2 1 1c4 0 8 2 13 4-2-1-3 0-3 1-19-5-34-15-45-30-1-2-2-3-4-2 0-3 0-5-2-7-1-2-1-2-2 0-1-1 0-2 1-3l-10-18-7-27c-3 0-5 0-6 2v-2l5-2Z" opacity=".7"/>
  <path fill="#373836" d="M638 400a599 599 0 0 1-12-3c-6-3-11-5-17-5l-7 1c-6 0-10 3-12 8-2 4-3 8-2 12 2 1 3 3 4 6l-1 2c-6-5-7-10-6-16s4-10 10-13c8-4 17-4 27 0l16 8Zm-20-2v-2 2Z" opacity=".6"/>
  <path fill="#292a29" d="m190 390 1 5-2 18c-2-8-2-16 1-23Z" opacity=".7"/>
  <path fill="#2c2d2a" d="M683 386v3c-1 0-2 1-2 3-5 5-11 7-18 5l-5-2c-2-2-2-3 1-2l2 1 8 2h2l2-1h1l4-4 5-5Z" opacity=".5"/>
  <path fill="#5d5e5d" d="m191 395 1 21c-2-3-3-3-2 1-1-2-2-3-1-4l2-18Z" opacity=".1"/>
  <path fill="#414240" d="M638 400a647 647 0 0 0 40 19l10-1-2 1 2 1v1h-13l-10-3-1 2-2-4c-3 0-6-1-8-3l-1 1-16-12c2 0 2-1 1-2Z" opacity=".4"/>
  <path fill="#363736" d="M717 394h3c-4 1-6 3-6 6l-2 2c-3 2-5 5-6 8l-1 1-4 4c-4 3-9 4-13 5l-2-1 2-1c7-2 13-6 16-12l1 1c3-6 7-10 12-13Z" opacity=".5"/>
  <path fill="#363735" d="M723 394c8 8 11 17 6 29l-3 5-6 5v-2c-1-3 0-4 2-2l4-6c0-3 1-5 3-7v-8l-2-5c-1-4-3-6-5-7-2-2-2-3 1-2Z" opacity=".6"/>
  <path fill="#1b1d1b" d="M192 416v2l-1 3-1-3v-1c-1-4 0-4 2-1Z" opacity=".7"/>
  <path fill="#616261" d="m530 418-3 3c-1-2-1-2-1 0l-1 1-4 1-2-1 2-2-3-1 4-1c2 1 3 0 3-2 1 0 3 0 5 2Z" opacity=".2"/>
  <path fill="#404140" d="M561 408c-1 5 1 11 4 16 3-3 3-2 1 1l7 7c-1-1-2 0-2 1-3-1-6-2-7-4 0-3-1-4-3-5 1-1 0-2-1-2l-1-9 2-5Z" opacity=".7"/>
  <path fill="#6d6e6e" d="m726 423-4 6c0-3 1-5 4-6Z" opacity=".1"/>
  <path fill="#5c5d5c" d="M251 430v-3l-3 5 1-5c-1-1-2-2-4-1-3-1-5 0-7 2v-4c4-1 9 0 14 1l2 5h-3Z" opacity=".1"/>
  <path fill="#2e2e2d" d="M678 432h-1l-5-1c4-3 9-3 14-1l-8 2Z" opacity=".5"/>
  <path fill="#424242" d="M249 427c-3 1-5 2-7 1-4 1-8 4-9 9 0-3-1-3-2-1-1-2 0-3 1-4l4-5 2 1c2-2 4-3 7-2 2-1 3 0 4 1Z" opacity=".6"/>
  <path fill="#666867" d="m500 432-5 2c1-2 2-3 5-2Z" opacity=".1"/>
  <path fill="#3b3d3b" d="m388 413 16 17 11 9v3a192 192 0 0 0-11 30v-3c0-10 3-19 8-26 1-4 0-6-3-6-1-2-2-2-3 0-4-6-9-10-14-13l-4-8v-3Z" opacity=".6"/>
  <path fill="#393b3a" d="m531 420-2 2c-7 8-16 14-25 18l-1 4-1-2c-12 5-24 9-36 10a288 288 0 0 1-15-1 103 103 0 0 0 75-30h1l3-3 3-4 1-1c0-1 1-2 3-2l1 1-7 8Z" opacity=".5"/>
  <path fill="#3a3c3b" d="m592 419 3 3c1-3 2-3 3 0l1-2 1 4c1-1 2 0 3 1l-1 1 8 4 26 7v1l6 1h2l7 3-4 1c-20-4-38-10-55-19a4192 4192 0 0 0 0-5Z" opacity=".7"/>
  <path fill="#313231" d="M571 433c0-1 1-2 2-1 7 4 15 8 24 11 2 1 2 2-1 2l-17-7h-1l-1-1c-2-2-4-4-6-4Z" opacity=".6"/>
  <path fill="#606161" d="M571 433c2 0 4 2 6 4l1 1v1l-5-1-2-5Z" opacity=".1"/>
  <path fill="#6f6e6b" d="m829 428 1 2-5 5v3c-3-3-4-3-2 1h-5l2-1-2-3c1-3 2-3 4 0 2-3 4-6 7-7Z" opacity=".1"/>
  <path fill="#414241" d="m519 422 2 1c-13 8-26 14-41 17 0-1 1-2 3-2h-3l5-3 3 1 2-1c0-3 0-3 1 0 1-1 2-2 4-1l5-2 12-8 7-2Z" opacity=".5"/>
  <path fill="#606161" d="M636 437h5l1 2-6-1c2-1 2-1 0-1Z" opacity=".1"/>
  <path fill="#3d3e3d" d="M691 432c4 3 8 7 11 12v-3c3-2 6-2 10-3l8-5-2 3c-7 4-11 9-13 17a590 590 0 0 0-14-21Z" opacity=".4"/>
  <path fill="#3a3b3b" d="M452 438h31c-2 0-3 1-3 2-11 2-21 2-31-1 0-1 1-2 3-1Z" opacity=".6"/>
  <path fill="#5c5d5d" d="M720 431v2l-8 5c-4 1-7 1-10 3v3c-3-5-7-9-11-12h9l6 2c-2 1-1 2 1 3l5-5 2 2 6-3Z" opacity=".1"/>
  <path fill="#505050" d="M250 433c-2 6-2 12 0 19l-2-2v-15l2-2Z" opacity=".1"/>
  <path fill="#474847" d="m668 439 5 8c-4 0-7 0-10-2 0-2 0-4 2-6-3-5-1-8 5-7-3 2-4 4-2 7Z" opacity=".4"/>
  <path fill="#636464" d="m600 444 15 3-6 1-9-4Z" opacity=".1"/>
  <path fill="#454644" d="M152 384a171 171 0 0 0 11 66c7 18 18 33 34 46-1-1-2 0-2 1-2 0-3 0-3 2-2-6-6-10-10-13l-5-7-15-24a157 157 0 0 1-8-25c-3-9-4-19-4-28l2-18Z" opacity=".6"/>
  <path fill="#313331" d="M555 443c3-1 7 0 11 2l25 2-16 1-22-4c0-1 1-2 2-1Z" opacity=".5"/>
  <path fill="#5d5f5e" d="m579 438 17 7-5 2-25-2h8l5-5-1-1 1-1Z" opacity=".1"/>
  <path fill="#4e4e4d" d="M597 443a121 121 0 0 0 12 5h-34l16-1 5-2c3 0 3-1 1-2Z" opacity=".5"/>
  <path fill="#393a39" d="M663 445c3 2 6 2 10 2 1 0 2 1 2 3 1 1 1 2-1 2-7-3-14-6-21-7l-1-2 11 2Z" opacity=".6"/>
  <path fill="#464746" d="M555 443c-1-1-2 0-2 1l-7-2-10 7c-2 2-4 3-5 6l-1-1c-7 5-13 11-18 18l-1-1 2-6 10-8-2-1c4-1 7-3 8-7l1 2c5-6 11-10 17-12 3 0 5 2 8 4Z" opacity=".7"/>
  <path fill="#535352" d="m736 447-3 4 5 1-5 3-1-1c-5 3-7 2-5-3h4l5-4Z" opacity=".4"/>
  <path fill="#474847" d="M776 448h2c3 2 6 5 8 9 0 2 2 4 4 6l-2 1c-1-3-3-3-4-2l1-1c-2-5-6-9-10-11l1-2Z" opacity=".6"/>
  <path fill="#363736" d="m192 418 5 14h3c2 8 7 14 14 19v1c0 1 1 2 3 2l1 1c3 3 8 4 13 5-2-6-3-12-2-17v-2l1-2 1-3c1-2 2-2 2 1l-2 10 2 11v3h-8l-13-7-1 1c-3-5-6-9-10-12-2 0-2 0 0-2-5-6-9-12-10-20l1-3Z" opacity=".5"/>
  <path fill="#353635" d="m251 430-1 3-2 2v15l2 2 1 3c0 3 2 5 5 7l1 2c1 1 1 2-1 2a29 29 0 0 1-8-34 315 315 0 0 0 3-2Z" opacity=".4"/>
  <path fill="#363635" d="m750 416-1 17v1l-5 8-7 7 12 2 2 1h1l1 1 2 1c0 1 1 2 3 2 7 7 13 15 19 25l2 1-1 1 2 5c1-3 2-3 3 0l-2 2 2 4 4 15c-1 0-2 1-1 3-5-19-14-36-26-50l1-1a3791 3791 0 0 1-17-9h-6l-5-1 3-4c7-7 11-14 13-23-1-3 0-6 1-8Z" opacity=".6"/>
  <path fill="#60615f" d="M764 446h1l2 1c7 8 14 17 20 27l-1 1-1 1h-3c-1 1 0 2 2 3l-7 2c-6-10-12-18-19-25 2-1 4 0 6 1l-1 1c0 2 1 2 3 2-2-2-2-3 1-3l-4-2 1-4c-2-1-2-2-2-3l2-2Z" opacity=".1"/>
  <path fill="#444544" d="m434 449 4-1 13 3h-9l24 1-15 2-14-2c-2 0-2 0 0 1h-3a1690 1690 0 0 1-9 3l-4 5-1-2-1 3c-1-2-1-2-1 0l-1 1-2 4h-2c-2 0-2 1-2 2l-3 2v-4a696 696 0 0 1 26-18Z" opacity=".6"/>
  <path fill="#20211f" d="m434 449 6 1h-10c1-1 2-2 4-1Z" opacity=".7"/>
  <path fill="#575857" d="M233 458c1 2 0 3-2 5l-6-2h8v-3Z" opacity=".3"/>
  <path fill="#4b4c49" d="M825 438h1a103004 103004 0 0 0 22 42l-1 2-3-6-1-2-1-2-13-23c-4-3-6-7-6-10-2-4-1-4 2-1Z" opacity=".5"/>
  <path fill="#3a3c3a" d="m766 443 1 1 3 3 15 17-1 1 6 10v3l-2-3h-1v-1c-6-10-13-19-20-27l-2-1v-1c-2-2-2-3 1-2Z" opacity=".6"/>
  <path fill="#4a4b4b" d="M257 464h4c-3 1-3 2 0 3l2-3c0 3 2 5 6 6l-8 7-2-1 3-5c-1-3-2-3-3 0-1-1-2-2 0-3l-3-2c2 0 2-1 1-2Z" opacity=".2"/>
  <path fill="#3c3d3c" d="M203 468c0-1 1-2 2-1 8 6 18 11 29 15 9 2 18 0 25-6l2 1c-4 4-8 7-13 8-12 1-23-2-32-8l-13-9Z" opacity=".7"/>
  <path fill="#6f706d" d="M828 474c1-1 3 0 4 2l-4-2Z" opacity=".1"/>
  <path fill="#474746" d="m529 480-1-2-2 1 2-4 4-1-3 6Z" opacity=".6"/>
  <path fill="#52524f" d="m828 474 4 2 6 3-2 1-5-1c-2-2-3-1-3 1l3 6c-1 0-2 1-1 2-3-1-3-2-2-4l-8-12h7l1 2Z" opacity=".7"/>
  <path fill="#383a38" d="m511 471 1 1c-6 8-11 16-15 25l-1-2c2-6 5-12 9-17l-1-1 7-6Z" opacity=".7"/>
  <path fill="#60605c" d="m844 476 3 6 1-2 4 8-2 2-4-3c-1-2-1-2-1 0l-9-7 2-1 5 2c2-2 2-3 0-4l1-1Z" opacity=".4"/>
  <path fill="#4b4b4a" d="m526 484-3 5-1-2c-2 1-3 2-3 4l-1-1c-2 1-3 2-3 4h-2l4-6 6-5c0 2 1 2 3 1Z" opacity=".2"/>
  <path fill="#2a2b2a" d="m677 486-33 2h-4l-4-1 4-1c12-2 24-2 37 0Z" opacity=".8"/>
  <path fill="#464646" d="M677 486c4-1 8 0 12 1-4-1-7 0-9 1h-36l33-2Z" opacity=".3"/>
  <path fill="#323231" d="M689 487c3-1 6 0 10 1l-8 1-11-1c2-1 5-2 9-1Z" opacity=".4"/>
  <path fill="#3b3c3b" d="m640 486-4 1 4 1c-20 2-39 6-57 12l-22 13a708 708 0 0 1-23 21c18-25 43-40 73-44 9-3 19-4 29-4Z" opacity=".7"/>
  <path fill="#4b4b4b" d="M699 488c2-1 4 0 7 1h-6l6 2-15-2 8-1Z" opacity=".5"/>
  <path fill="#313230" d="m706 489 20 3 2 1-2 1h-11l-9-3-6-2h6Z" opacity=".7"/>
  <path fill="#2f302e" d="M529 480c-2 1-3 2-3 4-2 1-3 1-3-1l-6 5c-5 2-9 6-12 11l-2 4c-1-2-2-2-2 0l-3 2v-2l4-4 4-4c5-7 12-12 20-16l2-1 1 2Z" opacity=".6"/>
  <path fill="#6e6f6c" d="M197 496h4l-1 2c-2 0-3-1-3-2Z" opacity=".1"/>
  <path fill="#3d3d3c" d="M726 492c15 2 28 8 40 16 9 7 15 16 19 27l-1 4-6-12-1-2-4-6a171 171 0 0 0-15-13c-11-6-22-10-32-12l2-1-2-1Z" opacity=".6"/>
  <path fill="#464744" d="M831 486a250 250 0 0 1 13 35l-1-2a894 894 0 0 0-12-33Z" opacity=".4"/>
  <path fill="#545554" d="m496 495 1 2c-2 2-2 5-2 8l3-2v2l3-2v3c-4 0-6 2-5 5l-5 4-1-3-2 3v-7l8-13Z" opacity=".1"/>
  <path fill="#2f302f" d="m787 509 1 5c-1 1 0 2 1 3v7l-1 4c-2-6-2-11-2-16-1-2 0-3 1-3Z" opacity=".8"/>
  <path fill="#272826" d="M658 512h13l-11 2h-1c-3 0-3-1-1-2Z" opacity=".6"/>
  <path fill="#4a4a49" d="m680 516-1 1 6 6c0 3 0 4-2 2-6-9-14-12-23-11l11-2h-13l4-2 10 1 8 5Z" opacity=".7"/>
  <path fill="#30302f" d="M699 512h7l-6 2c-5 1-9 4-11 8l-2-2 4-4 5-3c0-1 1-2 3-1Z" opacity=".6"/>
  <path fill="#444442" d="M195 497c0-1 1-2 2-1 0 1 1 2 3 2l-2 4a578 578 0 0 0-45 65l3-1 3-2 3-1c2-1 2 0 1 2l-11 5c-2-1-3-2-2-3a378 378 0 0 1 46-66c2-2 1-3-1-4Z" opacity=".5"/>
  <path fill="#4e4f4e" d="m652 516 4-3c0-1 1-2 2-1-2 1-2 2 1 2l-6 4-6 13c-2-6-5-11-9-15-3-2-6-3-9-2l-2-1-3 2c-1-2-1-2-1 0-3-1-3-2-1-3l12-2 6 3c2 6 6 7 12 3Z" opacity=".1"/>
  <path fill="#464746" d="M593 518h-8l7 2c-9-1-16 2-19 11l-1-2-2 4v-3l6-10 10-4h4c1 0 2 0 3 2Z" opacity=".5"/>
  <path fill="#494a49" d="m715 517 3 7 3 1h1c0 3-1 5-4 6-1-6-4-10-7-15a1690 1690 0 0 1-9-6l13 3v4Z" opacity=".2"/>
  <path fill="#363736" d="M593 518c2-1 4 0 7 2l8 7v1l2 3c0 2 1 3 3 4l-2 7-1-6-1 7c0-13-5-21-17-23l-7-2h8Z" opacity=".5"/>
  <path fill="#343533" d="M523 489a311 311 0 0 0-36 77 279 279 0 0 1 32-75c0-2 1-3 3-4l1 2Z" opacity=".7"/>
  <path fill="#343534" d="M755 526h6l4 2 3 3 2 4 4 11v1a185 185 0 0 1 0 28c-1-2-2-4-1-5 0-10-1-19-3-27-2-7-5-12-10-15l-5-2Z" opacity=".6"/>
  <path fill="#303130" d="M629 514c-5 3-8 7-7 14 0 7 2 13 5 20 0 1 1 3 3 3h-3l-4-6c-3-9-4-17-2-25l2-5h1l3-2 2 1Z" opacity=".5"/>
  <path fill="#4a4b4a" d="m755 526 5 2c-9-1-13 3-12 12l1 6c-2-3-3-7-3-10-3-1-5-3-4-6l4-2 2 1-1 3c2-2 3-3 2-5l6-1Z" opacity=".4"/>
  <path fill="#2c2d2d" d="m573 531-2 8-2 9v-11c-1-2 0-3 1-4l2-4 1 2Z" opacity=".7"/>
  <path fill="#393938" d="m733 514 6 5 3 8v3c-1 3 1 5 4 6 0 3 1 7 3 10l5 37v17c-1 6-2 6-3 0l1-2-1-15v-1c0-16-2-30-7-44v-2c-3 4-5 9-7 15l-3 3h-7l-9-8c-5 3-11 5-17 5h-1c-3-2-5-3-7-2l-9-5c-2 0-2 1-2 2-3 0-5 1-7 3-2-1-3 0-3 1l-7-1 3-1c6-1 12-4 16-9l7 6c3 0 5 1 8 3l13-1 4-3 3-1 3 2 3 5 4 2 5-2c6-11 7-22 2-32-3-2-6-2-8-1-3 2-5 5-6 8h-1c0-5 2-8 6-10l6-1Z" opacity=".4"/>
  <path fill="#545552" d="m843 519 1 2 1-2c3-1 3 0 1 2l7 24-2-4v3l-2-3-1 3c-1-2-1-4 1-5l-6-20Z" opacity=".3"/>
  <path fill="#242423" d="M611 542c-1 2-2 5-1 8-1-2-2-3-1-4v-3l1-7 1 6Z" opacity=".6"/>
  <path fill="#353635" d="M789 524h1l1 2v3l-1 1-1 15-1-13v-4l1-4Z" opacity=".6"/>
  <path fill="#3b3b3a" d="m664 548-5 2-8-2-6-4c-3 1-5 4-7 6-3 2-5 2-6 1l12-10c1-1 2-2 4-1-1 1 0 2 1 3 4 3 9 4 15 5Z" opacity=".5"/>
  <path fill="#585858" d="m716 544-4 3v-3h4Z" opacity=".1"/>
  <path fill="#595958" d="M693 549c-3 1-5 0-6-2l-1 1c-1-2-3-2-4-2 0-1 0-2 2-2l9 5Z" opacity=".1"/>
  <path fill="#464746" d="M569 537v11l2-9v12c-1 1-2 3-1 5-2-4-3-8-2-12l1-7Z" opacity=".5"/>
  <path fill="#5e5e5d" d="M693 549c2-1 4 0 7 2l-5 1c0-2-1-3-2-3Z" opacity=".1"/>
  <path fill="#575857" d="M727 554c-5-2-10-4-14-4l-6 2-6-1c6 0 12-2 17-5l9 8Z" opacity=".2"/>
  <path fill="#3a3a3a" d="M609 546c-1 1 0 2 1 4v2l-2 11c-1-2-2-4-1-6-1-4 0-8 2-11Z" opacity=".3"/>
  <path fill="#555653" d="M832 549c2 0 3 1 4 4 2-2 3-1 5 0l-1 1 3 4 1-1 2 4 1-2c0 2 1 3 3 2v3l2 2-1 1-5-3-11-10-4-3c-1-1-1-2 1-2Z" opacity=".5"/>
  <path fill="#6f6e6c" d="M832 549c-2 0-2 1-1 2l4 3h-2l2 8c-2-3-3-3-2 1l-3-9-3-5c1-3 2-5 4-5l1 5Z" opacity=".2"/>
  <path fill="#434441" d="m853 545 5 26h-3l-1-10-3-17v-3l2 4Z" opacity=".7"/>
  <path fill="#595957" d="m184 560-1-2-1-1-19 8c1-2 1-3-1-2 0-3 1-4 3-2l16-8 1 1c2-3 3-3 6-1l-4 7Z" opacity=".6"/>
  <path fill="#2e2f2e" d="m571 551 5 22c0 1-1 2-2 1l-3-10-1-6v-2c-1-2 0-4 1-5Z" opacity=".5"/>
  <path fill="#6c6c68" d="m854 561 1 10-4-4 1-1-2-2 4-3Z" opacity=".3"/>
  <path fill="#313231" d="m487 566 1 2a803 803 0 0 0-1-2Z" opacity=".7"/>
  <path fill="#7b7a74" d="M855 571h3l1 1c-3 2-4 2-4-1Z" opacity=".2"/>
  <path fill="#3c3c3c" d="m560 560 1 8-3-5-3-7-6 10c-2 8-3 16-3 25l-2 1c-2-14 1-27 9-38l5-1c-1 2 0 4 2 7Z" opacity=".4"/>
  <path fill="#1e1e1e" d="M605 579v1c-1-3-2-5-1-7-1-2 0-4 1-5l1-4-1 15Z" opacity=".8"/>
  <path fill="#424240" d="m183 558 1 2-26 40v-3l4-7 21-32Z" opacity=".8"/>
  <path fill="#40413f" d="m835 562 4 24-1 5-1-5-4-23c-1-4 0-4 2-1Z" opacity=".6"/>
  <path fill="#454645" d="M553 587c0-4 3-7 6-8l1-3h4v-5l5 3c-7 4-12 9-15 15-3 0-3-1-1-2Z" opacity=".4"/>
  <path fill="#3c3c3b" d="M773 570c-1 1 0 3 1 5-4 20-12 38-24 55v-3l13-24 10-33Z" opacity=".5"/>
  <path fill="#3a3a39" d="M604 573c-1 2 0 4 1 7l-5 24c-2 0-3 1-3 3v-3l7-31Z" opacity=".5"/>
  <path fill="#353636" d="M578 579a500 500 0 0 0 12 29l-7-12-4-8-3-11 2 2Z" opacity=".6"/>
  <path fill="#3d3e3e" d="m748 591-2 14c-1-3-2-5-1-7-1-4 0-7 1-10l1-4 1 7Z" opacity=".5"/>
  <path fill="#6c6d69" d="m837 586 1 5 1-5 2 22-2-14v14l-2-16c-1-2-2-4 0-6Z" opacity=".2"/>
  <path fill="#515252" d="M745 598c-1 2 0 4 1 7l-1 4c0-4-1-4-2-1l2-10Z" opacity=".5"/>
  <path fill="#585958" d="M597 604v3c0-2 1-3 3-3-1 8-5 10-10 4l1-2c2 1 4 0 6-2Z" opacity=".1"/>
  <path fill="#333" d="m538 534 1 2c-30 36-47 77-53 124-1-2-2-4-1-6 6-46 24-86 53-120Z" opacity=".8"/>
  <path fill="#292a29" d="m477 623-1 12c-1-3-2-5-1-7v-2l1-6 1 3Z" opacity=".8"/>
  <path fill="#4d4e4a" d="M158 597v3a238 238 0 0 1-63 68h-1l-3 2c-3 0-3 1 0 2l-1 1c-3 0-4-1-2-3l1-2a288 288 0 0 0 69-71Z" opacity=".8"/>
  <path fill="#474847" d="M475 628c-1 2 0 4 1 7l-1 13-1-10c-1-4 0-7 1-10Z" opacity=".6"/>
  <path fill="#232523" d="m474 638 1 10v2c-1-3-2-6-1-9l-2-2 2-1Z" opacity=".8"/>
  <path fill="#6a6a67" d="m816 638-1 1 2 4c-2 1-3 3-3 6l-1-6v-7c1-1 2 0 3 2Z" opacity=".2"/>
  <path fill="#4d4d4a" d="m813 643 1 6-1 9-1-6c-1-4 0-7 1-9Z" opacity=".5"/>
  <path fill="#4d4e4d" d="M474 641c-1 3 0 6 1 9l-1 15-1-12-1 11c-1-8 0-16 2-23Z" opacity=".6"/>
  <path fill="#393b3a" d="M750 627v3c-12 21-18 44-20 69l-1-6c1-24 8-46 21-66Z" opacity=".8"/>
  <path fill="#393a39" d="m745 609-4 16a327 327 0 0 0-23 67l-1 4a105 105 0 0 1 5-23c4-19 11-37 18-54l3-11c1-3 2-3 2 1Z" opacity=".7"/>
  <path fill="#484848" d="M485 654c-1 2 0 4 1 6l-1 19-1-15-1-1 2-9Z" opacity=".6"/>
  <path fill="#4d4e4b" d="M841 608c0 22-3 44-10 65l-3-7-5-11-6-12-2-4 1-1 10 17 2 4v1l1 4 3-2c-1-3 0-4 2-6l-2-1 2-2a241 241 0 0 0 5-59l2 14Z" opacity=".5"/>
  <path fill="#2b2c2b" d="M474 665v8l-2 1v-10l1-11 1 12Z" opacity=".6"/>
  <path fill="#767673" d="M152 677c-1-3-3-4-5-3 0-2 1-2 3-2h5c0 2-1 3-3 5Z" opacity=".1"/>
  <path fill="#424242" d="M474 673v7c-1 6-2 13-1 20-1-9-2-18-1-26l2-1Z" opacity=".6"/>
  <path fill="#6a6a63" d="M91 670c0 1 1 2 3 2h10l2 2h-5l3 2h-8c-2-2-4-2-6-2v-1l1-1c-3-1-3-2 0-2Z" opacity=".5"/>
  <path fill="#52534f" d="M106 674a1808 1808 0 0 0 38 0h3c2-1 4 0 5 3a314 314 0 0 1-23 1 1024 1024 0 0 0-23-4Z" opacity=".5"/>
  <path fill="#333433" d="m484 664 1 15 1 17c-1 2-2 5-1 9-3-14-3-28-1-41Z" opacity=".8"/>
  <path fill="#313230" d="M474 680Z" opacity=".8"/>
  <path fill="#191a19" d="M719 696v2l-2 5v-7l1-4 1 4Z" opacity=".8"/>
  <path fill="#474846" d="m812 652 1 6-9 45a10906 10906 0 0 1-13 25c10-25 17-50 21-76Z" opacity=".5"/>
  <path fill="#575753" d="M149 679a996 996 0 0 1-55 40l28-22a520 520 0 0 0 27-18Z" opacity=".5"/>
  <path fill="#515252" d="m473 700 1 10c-2-4-2-7-1-10Z" opacity=".3"/>
  <path fill="#2d2e2d" d="M486 696a290 290 0 0 1 1 24c-1-3-2-5-1-7l-1-6v-2c-1-4 0-7 1-9Z" opacity=".8"/>
  <path fill="#333433" d="m729 693 1 6-1 16c-1-4-2-8-1-12-1-4 0-7 1-10Z" opacity=".8"/>
  <path fill="#4a4b4a" d="M717 698v5l2-5-2 18-1-10c-1-3 0-6 1-8Z" opacity=".6"/>
  <path fill="#5e5f5f" d="m485 707 1 6-2-6h1Z" opacity=".1"/>
  <path fill="#616160" d="M678 712c-2 1-2 2 0 3-2 1-2 3-1 5l-3 3h-2c-1-4 0-7 3-10l-1-1h4Z" opacity=".1"/>
  <path fill="#414240" d="M728 703a4040 4040 0 0 1 0 68 2371 2371 0 0 1-1-27v-24l-1-1 2-16Z" opacity=".6"/>
  <path fill="#242424" d="m488 714 1 8-1 2-1-3v-1c-1-3 0-5 1-6Z" opacity=".8"/>
  <path fill="#323332" d="m716 706 1 10-1 38a273 273 0 0 1 0-48Z" opacity=".6"/>
  <path fill="#86867c" d="m94 719 2 1-2 1 2 4-2-1c-1-2-1-2-1 0l-4-1c-1 0-2 1-1 2l-1 1-1-3 8-4Z" opacity=".3"/>
  <path fill="#484a49" d="m487 721 1 3 1-2 1 4c-1 1-2 2-1 4-2-3-3-6-2-9Z" opacity=".6"/>
  <path fill="#636263" d="M490 727c1 0 2 1 1 3-1-1-2-2-1-3Z" opacity=".1"/>
  <path fill="#676862" d="M93 724h1l2 1 6 2c1-3 2-3 2 1 2-1 3 0 5 2-2 0-2 1 0 2l-4-1-17-6c-1-1 0-2 1-2l4 1Z" opacity=".7"/>
  <path fill="#444545" d="m477 722 1 7c-1 1-2 3-1 6-1-3-2-5-1-7l1-6Z" opacity=".6"/>
  <path fill="#131615" d="M490 726v1c-1 1 0 2 1 3v1l-1 4v-1l-1-3v-1c-1-2 0-3 1-4Z" opacity=".8"/>
  <path fill="#3f403f" d="M678 712h1l4 5 7 18 3 1c-2 1-3 2-2 4l1-2 2 5-2-2v4c-1 2-2 4-1 7-2-10-4-20-8-29-1-4-3-6-5-8-2-1-2-2 0-3Z" opacity=".7"/>
  <path fill="#2c2d2c" d="m478 729 1 8-1 4c-1-2-2-4-1-6-1-3 0-5 1-6Z" opacity=".8"/>
  <path fill="#505050" d="m489 731 1 3-2-3h1Z" opacity=".4"/>
  <path fill="#303232" d="M727 720v24c-2-8-2-16 0-24Z" opacity=".8"/>
  <path fill="#3c3d3c" d="M538 715c8 9 13 20 16 33l-1 17v3c-2 0-3 0-3 2l-3 10v-5l6-21c-3-15-9-28-18-38 0-3 1-3 3-1Z" opacity=".5"/>
  <path fill="#464646" d="M672 723h2c3 5 5 12 6 19l-2-3v6l-2-2v-7c-3 0-4-1-2-2l-2-4 2-1c-3-2-3-4-2-6Z" opacity=".6"/>
  <path fill="#52534f" d="M109 730c22 7 43 18 63 32l4 1-1 2-1 1c-2 1-3 1-4-1l1-1a3620 3620 0 0 1-19-11c-10-6-21-11-31-15l-12-6c-2-1-2-2 0-2Z" opacity=".7"/>
  <path fill="#555" d="m479 737 2 8-2-3v3c-3-1-3-3-1-4l1-4Z" opacity=".1"/>
  <path fill="#393a38" d="m538 739-7 20c-2 1-2 1-2-1l7-20c1-2 2-2 2 1Z" opacity=".5"/>
  <path fill="#2b2c2a" d="M481 745v2l-1 4c-1-2-2-4-1-6v-3l2 3Z" opacity=".8"/>
  <path fill="#4e4e4e" d="M554 748c1 2 2 5 1 8l2 2h-2l-1 8-1-1 1-17Z" opacity=".4"/>
  <path fill="#292a29" d="M692 745c-1 1 0 3 1 5v1l-1 11v1c-1 0-2 1-1 2-1-1-2-2-1-3-1-4-1-7 1-10-1-3 0-5 1-7Z" opacity=".6"/>
  <path fill="#3c3d3c" d="M680 742c2 10 2 21-1 32-1-1-2-2-1-3a87 87 0 0 0 0-25v-7l2 3Z" opacity=".5"/>
  <path fill="#3c3d3c" d="M690 762c-1 1 0 2 1 3l-1 4c-2 5-6 10-10 14-1-1-2 0-3 1v-2l1-1 5-5 7-14Z" opacity=".6"/>
  <path fill="#40403f" d="m536 770 8 9-1 2h-1l-12-14h3l3 3Z" opacity=".4"/>
  <path fill="#51524e" d="M791 728a835 835 0 0 0 88 66l-3 2-8-5-3-2a710 710 0 0 1-76-58c-1-2 0-3 2-3Z" opacity=".4"/>
  <path fill="#5c5c5c" d="m713 783-2-3v18l2-6v7l-2 14-2-1-4 7 5-14v-21c-3 0-5 2-6 4l-1-2-4 5-3 1 3-7 1 2 9-11c1-1 2-2 4-1v8Z" opacity=".1"/>
  <path fill="#393a39" d="M481 747c5 29 15 57 28 85l11 15-2 1-8-10-1-1c-15-28-24-56-29-86l1-4Z" opacity=".7"/>
  <path fill="#4b4c4c" d="M678 771c-1 1 0 2 1 3l-2 5 1 2c-2-1-3 0-1 1v2c1-1 2-2 3-1-3 3-5 3-8 0l6-12Z" opacity=".5"/>
  <path fill="#2c2d2c" d="M582 781v2c0 2 0 5 2 8v4l-1 3-3-15v-5l2 3Z" opacity=".7"/>
  <path fill="#2c2d2c" d="M713 783v9l-2 6v-18l2 3Z" opacity=".4"/>
  <path fill="#4c4e4d" d="M584 791c-2-3-2-6-2-8h2v8Z" opacity=".2"/>
  <path fill="#646464" d="M696 792c0 3-2 6-5 7 1-3 2-5 5-7Z" opacity=".1"/>
  <path fill="#6b6b65" d="m868 791 8 5v1l-21 4 4-2h-6c1-2 3-2 5-1l10-3-1-1 3-1c-2 0-2-1-2-2Z" opacity=".4"/>
  <path fill="#373736" d="m582 781-2-3v5l-5-19c-9 12-15 25-19 41-1 5-1 11 1 17 3 4 8 7 14 8 1-1 2 0 3 1h-8c-8-2-12-6-12-13v-11c0-5 1-9 3-13-2-2-1-3 1-3 1-4 2-8 5-11l3-6 2-8 1 2 7-12 6 25Z" opacity=".6"/>
  <path fill="#383938" d="M491 731c8 34 22 65 42 94l16 16c12 8 27 14 43 18-2-1-3 0-4 1-24-4-44-16-58-35a562 562 0 0 1-26-42l2-1c-8-15-13-31-16-47l1-4Z" opacity=".7"/>
  <path fill="#71726e" d="m824 800 17 2c-6 0-12 1-17 3l-1-1-1-1c-1-2-1-2-1 0-2-2-3-2-3 0l-4-3 9-1 1 1Z" opacity=".2"/>
  <path fill="#4b4c48" d="M853 799h6l-4 2-14 1-17-2 29-1Z" opacity=".4"/>
  <path fill="#393a38" d="m606 800 1 1-7 2c-4 3-7 7-7 12l-2-2c0-3 2-7 4-9 2-4 6-5 11-4Z" opacity=".5"/>
  <path fill="#404140" d="m704 788-17 18a1596 1596 0 0 1-8 9v-7c3 0 6-2 8-5v-3l4-1c3-1 5-4 5-7l3-1 4-5 1 2Z" opacity=".6"/>
  <path fill="#3f403f" d="M729 755a923 923 0 0 1 2 48 633 633 0 0 1-3 4 1263 1263 0 0 1 1-52Z" opacity=".4"/>
  <path fill="#5e5e5d" d="M687 803c-2 3-5 5-8 5v7h3c-1 2-2 3-4 3l-1-10c-2-1-4-2-6-1l2-2h-2c0-2 1-3 3-3 2 3 4 3 6 0l7 1Z" opacity=".1"/>
  <path fill="#474746" d="M595 804c-2 2-4 6-4 9l2 2c-2 6-1 11 4 16l-1 2h-1l-3-4-1-2-1-9h-3l-8 11v1c-2 1-4 2-5 1s-2-2-3-1c9-4 14-10 15-19l1 5 1-5 4-8 3 1Z" opacity=".2"/>
  <path fill="#191b18" d="m638 808-9 2h-1c-2-1-2-1 0-2h10Z" opacity=".6"/>
  <path fill="#494b48" d="M175 765c16 10 33 21 49 33l59 49-4-1-9-7c-8-7-16-14-24-19-5-5-10-10-16-13a803 803 0 0 1-32-24 107 107 0 0 0-16-11l-8-6 1-1Z" opacity=".5"/>
  <path fill="#545554" d="M638 808h10l1 2-9-1 3 2c-5-1-10-2-14-1l9-2Z" opacity=".2"/>
  <path fill="#616162" d="M554 807v11l-2-3v-7l2-1Z" opacity=".1"/>
  <path fill="#454544" d="M671 805h2l-2 2c-9 5-19 6-28 4l-3-2 9 1h1c4 1 8 0 12-2 2-2 5-3 9-3Z" opacity=".4"/>
  <path fill="#4b4b4a" d="M606 800h3c3 4 8 7 12 10 5-3 10-4 15-4l2 2h-10c-2 1-2 1 0 2-4 1-7 3-9 6l-9-12c-4-1-7-2-10-1l7-2-1-1Z" opacity=".4"/>
  <path fill="#292b29" d="M720 815v2h-2l1-5 1 3Z" opacity=".6"/>
  <path fill="#323231" d="m584 795 1 1v1c-1 1 0 2 1 4l2 10-1 5-1-5-3-13 1-3Z" opacity=".4"/>
  <path fill="#353634" d="M710 800v5a128 128 0 0 1-6 15c-4 4-8 8-13 10h-8c1-1 3-2 5-1 6-2 10-6 14-11l8-18Z" opacity=".4"/>
  <path fill="#4f4f4c" d="M821 803h1l1 1 1 1 8 4a1245 1245 0 0 0 42 27 205 205 0 0 1-26-15l-27-15-2 1c1-2 0-3-1-4 0-2 1-2 3 0Z" opacity=".6"/>
  <path fill="#4e504e" d="M728 807c-1 3 0 6 1 9l-1 5-2-1 2-13Z" opacity=".7"/>
  <path fill="#5c5c5b" d="M617 821c-1 4 1 7 4 11-4-1-7 0-10 1l5-8-1-1-3 4c0-3 2-6 5-7Z" opacity=".1"/>
  <path fill="#353634" d="M642 835h-1l-1-1 2-2 5-5h2l-7 8Z" opacity=".5"/>
  <path fill="#616160" d="m704 820 1 1c-3 2-6 5-7 8l1 1-9 3-16-1 2-4c1 3 4 3 7 2h8c5-2 9-6 13-10Z" opacity=".1"/>
  <path fill="#494949" d="M566 831h8c-3 2-6 2-8 0Z" opacity=".4"/>
  <path fill="#50504f" d="M688 829c-2-1-4 0-5 1-3 1-6 1-7-2l-2 4-7 4-14 1-7-4c-1 2-3 2-4 2l7-8h-2l1-5c0-1 1-2 2-1 0 12 6 16 18 12l9-10c1 0 2 1 1 2l10 4Z" opacity=".3"/>
  <path fill="#595958" d="m608 831-5 2 6 1c-4 0-7 1-10 3l-3-4 1-2h11Z" opacity=".3"/>
  <path fill="#424140" d="m611 833-2 1-6-1 5-2a309 309 0 0 1 7-7l1 1-5 8Z" opacity=".3"/>
  <path fill="#4d4d4d" d="m642 832-2 2 1 1c-7 2-13 2-19-1l-1-2c-3-4-5-7-4-11l1-2c2 14 10 18 24 13Z" opacity=".3"/>
  <path fill="#a09f8f" d="M881 838c1-1 3 0 5 1l-3 2-2-3Z" opacity=".1"/>
  <path fill="#75756d" d="M877 835c2-1 3 0 4 3l2 3c-5 0-10 2-14 4 1-2 1-3-1-2l6-7c2 1 3 1 3-1Z" opacity=".2"/>
  <path fill="#848480" d="m852 848-5 2c1-2 2-3 5-2Z" opacity=".1"/>
  <path fill="#3e3e3d" d="M715 721a273 273 0 0 0 8 79l-3 15-1-3-1 5h2c-8 21-23 35-44 41l-23 4-8-1 31-6c8-5 16-9 25-12l5-5 4-6c1-5 3-9 6-12 1-4 1-7 3-10v-13l1-1-1-11-1-6-2-7v-2c-2-6-3-11-2-16l-2-3 3-30Z" opacity=".6"/>
  <path fill="#4d4e4b" d="m279 846 4 1a3600 3600 0 0 1 49 39c-9-7-18-14-27-19l-19-15-7-6Z" opacity=".6"/>
  <path fill="#262625" d="M592 859h3l3 1-3 1-7-1c1-1 2-2 4-1Z" opacity=".7"/>
  <path fill="#4a4b49" d="M595 859c4 0 9 0 14 2-3-1-6 0-8 1l-6-1 3-1-3-1Z" opacity=".5"/>
  <path fill="#535451" d="M868 843c2-1 2 0 1 2-26 7-49 18-71 32l-2-1a284 284 0 0 1 72-33Z" opacity=".6"/>
  <path fill="#414241" d="m520 847 11 11c7 7 15 12 24 16l15 7 1-1c4 2 8 3 12 2l1 2h-4l1 2c-10-2-20-6-30-10-13-6-24-16-33-28l2-1Z" opacity=".6"/>
  <path fill="#40413f" d="m726 820 2 1c-1 8-4 16-8 24-1 0-2 1-2 3a73 73 0 0 1-41 32l-21 5c-2-1-4-2-5-1 15-3 29-8 43-15 17-12 28-28 32-49Z" opacity=".6"/>
  <path fill="#2e302e" d="M601 862c2-1 5-2 8-1h3l31 2c-15 1-29 1-42-1Z" opacity=".7"/>
  <path fill="#313231" d="M584 884c2-1 5 0 8 1l-8 1h-3l-1-2h4Z" opacity=".5"/>
  <path fill="#343332" d="M651 884c1-1 3 0 5 1l-7 1-7-1c2-1 5-2 9-1Z" opacity=".7"/>
  <path fill="#484746" d="M634 886c2-1 5-2 8-1l7 1-9 1c-2-1-4-2-6-1Z" opacity=".6"/>
  <path fill="#414241" d="M592 885a721 721 0 0 0 48 2c-19 2-38 2-56-1l8-1Z" opacity=".5"/>
  <path fill="#4e504d" d="M334 885a652 652 0 0 0 85 50 532 532 0 0 1-56-28 725 725 0 0 1-29-22Z" opacity=".7"/>
  <path fill="#52524f" d="m796 876 2 1a994 994 0 0 0-86 57l-1-1 3-3 3-2 5-6 1 1a1442 1442 0 0 0 73-47Z" opacity=".6"/>
  <path fill="#646461" d="m712 912-1-6-2 11-1-7-1 4-2 1c1-3 1-4-1-2 1-4 4-7 7-10l1-5v14Z" opacity=".3"/>
  <path fill="#3a3a38" d="M712 912v3l-3 8v-6l2-11 1 6Z" opacity=".6"/>
  <path fill="#686763" d="M502 926c-2-2-3-2-3 0l-9-8c-1-2-2-3-3-2l-2-4v8l-2-4v-3h-2l1-3h2c7 4 13 9 18 16Z" opacity=".4"/>
  <path fill="#383936" d="M487 916v1l-1 7-1-4v-8l2 4Z" opacity=".3"/>
  <path fill="#646561" d="m487 917 2 13-2-4v5c-2-4-2-8-2-11l1 4 1-7Z" opacity=".4"/>
  <path fill="#50504e" d="M705 915c-13 19-29 34-50 45-3-1-3-2-1-3l1 1 9-6c16-10 29-23 40-39 2-2 2-1 1 2Z" opacity=".7"/>
  <path fill="#777673" d="M712 915c-2 4-2 8 0 13h5l-3 2-3 3c-2 1-3 1-3-1v-7l-1 4c0-5 0-9 2-12v6l3-8Zm0 13c0 3-1 3-2 0h2Z" opacity=".1"/>
  <path fill="#333432" d="M489 930v1c0 3-1 3-2 1v-6l2 4Z" opacity=".6"/>
  <path fill="#303030" d="m711 933 1 1-2 1-2 1c-1-3-2-5-1-7l1-4v7c0 2 1 2 3 1Z" opacity=".6"/>
  <path fill="#61625e" d="m489 931 2 7c-2-3-3-3-2 1-2-3-2-5-2-7 1 2 2 2 2-1Z" opacity=".5"/>
  <path fill="#60605c" d="m657 952-3 5c-2 1-2 2 1 3-2 2-3 2-4 0 2-7 4-13 4-20l-2 1-1-1v-2l7-5v16c-2 0-2 1-2 3Z" opacity=".4"/>
  <path fill="#4d4e4b" d="M421 934a345 345 0 0 0 68 20l-4 1c-23-4-45-11-66-20 0-1 1-2 2-1Z" opacity=".6"/>
  <path fill="#3f403d" d="m491 938 4 14c-1 2-1 2-2 0l-1-3-2-6c-2-2-2-3-1-4-1-4 0-4 2-1Z" opacity=".6"/>
  <path fill="#575752" d="M497 955v5c-1-3-3-4-5-3l-1-2h6Z" opacity=".4"/>
  <path fill="#4e4f4c" d="M502 926a177 177 0 0 0 72 38l-3 1-10-2c-4-2-8-4-11-4-20-8-37-19-51-33 0-2 1-2 3 0Z" opacity=".6"/>
  <path fill="#4f4f4c" d="m652 940 1 1c-9 8-19 14-30 19l-25 9h-8l9-3c19-6 37-14 53-26Z" opacity=".6"/>
  <path fill="#6d6e6a" d="M578 965c-2-1-3 0-3 1l-4-1 3-1-3-1 3-1 4 3Z" opacity=".5"/>
  <path fill="#444542" d="M575 966c0-1 1-2 3-1l7 1 3 1-2 1-11-2Z" opacity=".6"/>
  <path fill="#706f6a" d="M585 966h14l-9 3-4-1 2-1-3-1Z" opacity=".4"/>
  <path fill="#7b7a76" d="M590 969h8l-4 2c-1-2-2-1-2 1l-2-3Z" opacity=".3"/>
</svg>